<?xml version="1.0" standalone="no"?>
<!DOCTYPE svg PUBLIC "-//W3C//DTD SVG 20010904//EN"
 "http://www.w3.org/TR/2001/REC-SVG-20010904/DTD/svg10.dtd">
<svg version="1.0" xmlns="http://www.w3.org/2000/svg"
 width="260.000000pt" height="340.000000pt" viewBox="0 0 260.000000 340.000000"
 preserveAspectRatio="xMidYMid meet">
<metadata>
Created by potrace 1.16, written by Peter Selinger 2001-2019
</metadata>
<g transform="translate(0.000000,340.000000) scale(0.100000,-0.100000)"
fill="#000000" stroke="none">
<path d="M1995 3239 c-17 -17 -64 -63 -106 -102 -119 -113 -185 -212 -254
-380 -22 -55 -44 -100 -50 -100 -5 0 -15 10 -21 23 l-12 22 -7 -21 c-3 -12
-10 -21 -14 -21 -4 0 -26 29 -48 63 -65 99 -156 163 -282 201 -52 15 -162 22
-131 8 47 -22 219 -130 243 -153 49 -49 39 -59 -60 -60 -81 0 -206 -15 -156
-18 12 0 23 -6 25 -13 2 -6 24 -11 51 -11 26 1 47 -2 47 -7 0 -5 20 -18 45
-30 67 -32 89 -75 83 -160 -9 -125 -60 -179 -183 -194 -22 -3 -41 -5 -42 -6
-1 0 -7 -16 -13 -35 -24 -73 12 -216 76 -299 27 -35 54 -55 117 -86 46 -22
104 -43 130 -46 26 -4 57 -15 69 -25 20 -18 20 -22 7 -62 -13 -40 -57 -114
-89 -149 -8 -9 -24 -34 -35 -55 -11 -21 -23 -40 -26 -43 -6 -5 -47 -78 -103
-184 -14 -27 -26 -54 -26 -61 0 -7 -9 -24 -21 -39 -11 -14 -17 -26 -12 -26 4
0 4 -4 -2 -8 -12 -9 -35 -65 -44 -113 -4 -19 -11 -40 -14 -46 -4 -6 0 -13 7
-16 20 -8 86 12 92 27 3 8 22 21 43 31 22 9 48 30 60 46 12 16 27 29 33 29 6
0 36 27 67 60 31 33 63 61 71 62 8 2 19 12 25 23 6 11 19 21 29 23 17 4 18 -1
12 -45 -4 -26 -21 -77 -38 -113 -57 -124 -83 -175 -90 -178 -5 -2 -8 -7 -8
-11 0 -36 -208 -341 -232 -341 -6 0 -9 -2 -6 -5 6 -7 -56 -72 -112 -117 -56
-45 -117 -72 -124 -55 -3 9 -5 9 -5 0 -2 -23 -27 -14 -40 13 -6 14 -15 54 -20
89 -5 36 -12 68 -15 74 -3 5 1 26 10 47 9 22 14 53 11 74 -3 22 1 40 9 48 23
21 17 29 -32 43 -58 17 -101 58 -200 190 -51 67 -58 80 -90 170 -77 214 -94
574 -39 829 8 36 17 76 19 90 3 14 -3 -2 -14 -35 -29 -85 -58 -233 -76 -392
-23 -195 -15 -630 15 -789 40 -221 107 -378 191 -455 64 -59 104 -74 195 -74
69 0 89 4 147 32 134 63 259 166 398 329 313 364 569 862 597 1160 3 35 9 64
12 63 3 0 29 -29 56 -64 28 -35 63 -71 79 -80 27 -17 29 -16 54 2 56 42 102
177 102 298 0 236 -152 448 -369 516 -63 19 -139 24 -286 16 l-40 -2 1 41 c0
30 18 77 59 160 31 66 60 121 64 124 3 3 20 25 36 49 40 59 156 182 200 212
37 26 51 47 38 60 -5 5 -22 -5 -38 -22z m-394 -679 c17 0 88 -71 112 -113 14
-23 28 -58 32 -77 3 -19 9 -44 11 -55 4 -16 3 -17 -5 -5 -9 13 -11 12 -11 -5
0 -39 -86 -112 -197 -169 -92 -46 -117 -31 -115 67 3 151 98 382 149 363 8 -3
19 -6 24 -6z"/>
<path d="M1025 2508 c-158 -19 -258 -42 -277 -62 -53 -57 -170 -278 -155 -293
3 -2 8 6 12 19 29 97 193 208 395 268 85 26 93 30 88 57 -3 16 -9 18 -63 11z"/>
</g>
</svg>
