<svg id="svg" version="1.1" xmlns="http://www.w3.org/2000/svg" xmlns:xlink="http://www.w3.org/1999/xlink" width="400" height="293.33333333333337" viewBox="0, 0, 400,293.33333333333337"><g id="svgg"><path id="path0" d="M101.318 148.423 L 101.394 252.238 102.329 254.489 C 104.629 260.021,109.332 264.763,117.331 269.613 C 119.006 270.629,120.421 271.460,120.476 271.460 C 120.531 271.460,121.806 272.035,123.311 272.737 C 124.815 273.439,127.234 274.507,128.687 275.111 C 130.139 275.715,131.526 276.305,131.768 276.423 C 132.010 276.540,133.199 276.936,134.409 277.303 C 135.620 277.669,137.073 278.136,137.638 278.341 C 140.148 279.252,140.781 279.454,141.746 279.657 C 142.311 279.775,143.236 280.020,143.800 280.202 C 145.883 280.870,147.821 281.380,150.110 281.862 C 151.401 282.134,153.250 282.543,154.219 282.770 C 157.154 283.460,161.139 284.204,165.811 284.935 C 167.021 285.124,168.719 285.418,169.583 285.587 C 170.447 285.757,172.229 286.003,173.544 286.135 C 174.860 286.266,177.289 286.518,178.944 286.694 C 180.598 286.870,183.305 287.158,184.960 287.334 C 192.099 288.094,227.840 287.789,237.271 286.888 C 243.661 286.277,252.557 285.138,254.649 284.662 C 255.330 284.507,256.651 284.298,257.584 284.198 C 258.517 284.097,259.847 283.832,260.539 283.607 C 261.230 283.383,262.262 283.199,262.832 283.199 C 263.402 283.199,264.147 283.050,264.488 282.867 C 264.829 282.685,265.843 282.430,266.743 282.300 C 269.195 281.948,270.907 281.533,275.862 280.090 C 284.161 277.673,290.236 275.574,292.366 274.386 C 292.646 274.229,293.009 274.101,293.173 274.101 C 296.177 274.101,314.307 261.759,314.307 259.714 C 314.307 259.603,314.746 258.932,315.282 258.223 C 315.819 257.513,316.572 256.141,316.956 255.172 C 317.341 254.204,317.749 253.279,317.865 253.117 C 318.181 252.672,318.171 256.191,318.146 147.175 L 318.121 45.048 317.480 46.368 C 316.217 48.971,313.165 52.525,310.048 55.026 C 309.243 55.671,308.406 56.369,308.187 56.576 C 307.730 57.009,304.519 59.116,302.568 60.264 C 300.475 61.496,292.967 65.150,292.530 65.150 C 292.312 65.150,291.873 65.328,291.555 65.545 C 291.236 65.762,290.712 66.015,290.389 66.107 C 290.066 66.199,289.076 66.556,288.188 66.900 C 287.300 67.245,285.715 67.797,284.666 68.128 C 283.617 68.458,282.296 68.894,281.731 69.096 C 278.725 70.171,276.806 70.726,276.099 70.726 C 275.665 70.726,275.233 70.851,275.139 71.003 C 275.045 71.155,274.344 71.370,273.581 71.481 C 272.818 71.592,271.837 71.864,271.401 72.085 C 270.965 72.306,270.107 72.492,269.494 72.498 C 268.880 72.503,268.048 72.697,267.645 72.927 C 267.241 73.158,266.317 73.356,265.591 73.368 C 264.864 73.379,263.940 73.577,263.536 73.808 C 263.133 74.038,262.076 74.237,261.189 74.248 C 260.301 74.259,259.244 74.458,258.841 74.688 C 258.437 74.919,257.574 75.112,256.922 75.118 C 256.269 75.124,255.015 75.314,254.134 75.542 C 253.252 75.769,251.409 76.046,250.037 76.157 C 248.665 76.268,247.411 76.439,247.252 76.538 C 247.092 76.637,245.243 76.883,243.143 77.085 C 241.043 77.287,238.599 77.580,237.711 77.736 C 236.823 77.893,234.241 78.030,231.974 78.042 C 229.092 78.057,227.740 78.174,227.483 78.430 C 227.015 78.897,194.590 78.844,192.517 78.373 C 191.790 78.208,188.885 77.950,186.060 77.799 C 183.236 77.649,180.574 77.390,180.145 77.225 C 179.716 77.060,178.066 76.901,176.477 76.871 C 174.704 76.838,173.281 76.661,172.795 76.413 C 172.316 76.168,171.066 76.009,169.631 76.009 C 168.187 76.009,166.847 75.837,166.206 75.569 C 165.626 75.326,164.673 75.125,164.087 75.121 C 163.502 75.118,162.494 74.974,161.849 74.802 C 161.203 74.631,159.784 74.378,158.695 74.240 C 157.606 74.103,156.550 73.883,156.347 73.752 C 156.145 73.621,155.121 73.359,154.072 73.170 C 151.827 72.764,149.818 72.309,147.691 71.725 C 146.845 71.492,145.426 71.103,144.538 70.861 C 143.650 70.619,142.230 70.224,141.381 69.983 C 139.038 69.318,131.738 66.917,130.741 66.484 C 130.257 66.273,129.134 65.812,128.247 65.459 C 126.623 64.813,124.975 64.049,120.910 62.058 C 112.033 57.713,104.726 51.372,102.246 45.862 C 101.939 45.180,101.587 44.619,101.465 44.615 C 101.343 44.611,101.276 91.324,101.318 148.423 M161.262 133.857 C 162.069 134.017,163.832 134.269,165.181 134.415 C 166.529 134.562,167.784 134.801,167.969 134.947 C 168.154 135.094,168.829 135.308,169.469 135.423 C 170.748 135.654,172.292 136.362,172.629 136.871 C 172.888 137.262,172.931 150.008,172.676 150.673 C 172.405 151.379,171.589 151.237,169.563 150.130 C 167.232 148.857,163.932 147.616,162.877 147.616 C 162.432 147.616,161.593 147.417,161.014 147.175 C 159.512 146.548,154.668 146.599,152.751 147.262 C 145.344 149.825,145.616 157.199,153.264 161.140 C 153.707 161.369,156.141 162.612,158.673 163.903 C 161.205 165.194,163.607 166.511,164.010 166.828 C 164.414 167.145,165.105 167.608,165.546 167.855 C 172.169 171.571,175.494 177.283,175.497 184.950 C 175.498 189.072,175.403 189.666,174.226 192.930 C 173.206 195.759,169.470 200.007,166.691 201.498 C 165.965 201.887,165.172 202.318,164.930 202.454 C 162.896 203.600,160.093 204.460,155.246 205.425 C 153.589 205.755,143.909 205.757,141.746 205.428 C 138.956 205.003,133.578 203.542,133.120 203.083 C 132.958 202.921,132.620 202.783,132.370 202.777 C 132.120 202.772,131.549 202.468,131.103 202.102 L 130.291 201.437 130.369 193.826 C 130.460 184.973,130.369 185.179,133.252 187.346 C 135.361 188.932,139.955 191.222,141.599 191.508 C 142.245 191.621,142.959 191.860,143.186 192.041 C 144.034 192.717,152.841 192.436,154.435 191.682 C 158.028 189.983,159.089 187.123,157.576 183.215 C 156.822 181.264,153.422 178.852,146.735 175.521 C 140.215 172.273,134.776 168.119,133.207 165.187 C 130.465 160.062,130.300 159.458,130.303 154.522 C 130.305 150.063,130.932 147.307,132.474 144.974 C 132.848 144.409,133.441 143.461,133.793 142.866 C 134.522 141.635,137.351 138.984,138.665 138.302 C 139.149 138.050,139.941 137.555,140.426 137.201 C 142.242 135.876,146.527 134.580,151.577 133.830 C 153.758 133.506,159.583 133.522,161.262 133.857 M221.478 133.856 C 221.932 134.036,223.096 134.284,224.065 134.407 C 225.734 134.619,226.263 134.768,229.054 135.812 C 235.480 138.216,240.327 142.240,244.333 148.496 C 250.108 157.518,251.561 171.495,247.879 182.616 C 244.835 191.809,238.797 198.826,230.888 202.363 C 229.539 202.966,229.509 203.383,230.741 204.413 C 231.266 204.852,232.825 206.283,234.206 207.594 C 235.588 208.905,238.159 211.299,239.921 212.913 C 250.816 222.893,250.977 222.158,237.895 222.155 C 227.243 222.153,228.021 222.311,225.664 219.663 C 224.946 218.855,224.292 218.129,224.211 218.048 C 224.130 217.968,223.206 216.911,222.157 215.701 C 221.108 214.490,219.875 213.115,219.417 212.645 C 218.959 212.175,217.471 210.504,216.111 208.932 C 213.314 205.703,213.345 205.723,210.987 205.723 C 210.035 205.723,208.758 205.525,208.150 205.284 C 207.541 205.042,206.449 204.725,205.723 204.578 C 199.845 203.391,191.525 197.712,187.814 192.352 C 186.431 190.354,183.419 184.130,183.419 183.269 C 183.419 183.007,183.261 182.505,183.069 182.152 C 182.876 181.800,182.623 180.917,182.506 180.191 C 182.390 179.464,182.154 178.342,181.983 177.696 C 181.493 175.846,181.590 164.165,182.107 162.729 C 182.339 162.084,182.536 161.093,182.544 160.528 C 182.553 159.963,182.748 159.171,182.979 158.767 C 183.209 158.364,183.403 157.749,183.409 157.401 C 183.418 156.802,184.107 155.122,185.868 151.404 C 189.132 144.514,196.791 137.879,203.962 135.731 C 204.850 135.465,205.802 135.127,206.079 134.980 C 206.355 134.832,207.544 134.564,208.720 134.383 C 209.896 134.202,211.056 133.940,211.299 133.801 C 211.953 133.423,220.502 133.470,221.478 133.856 M276.503 135.730 C 276.636 136.214,276.737 148.793,276.727 163.684 C 276.717 178.574,276.790 190.889,276.890 191.050 C 277.005 191.237,281.489 191.343,289.320 191.343 C 298.457 191.343,301.660 191.432,301.922 191.695 C 302.600 192.373,302.402 204.166,301.707 204.538 C 300.771 205.039,260.764 204.952,260.346 204.448 C 259.987 204.015,259.841 136.378,260.198 135.448 C 260.520 134.608,261.181 134.551,268.851 134.703 L 276.261 134.850 276.503 135.730 M214.380 148.171 C 214.057 148.309,213.098 148.517,212.249 148.634 C 211.400 148.750,210.047 149.163,209.243 149.551 C 208.438 149.939,207.655 150.257,207.502 150.257 C 206.158 150.257,201.868 155.793,200.565 159.208 C 198.570 164.434,198.189 175.050,199.859 178.870 C 200.000 179.193,200.409 180.183,200.767 181.071 C 201.126 181.959,201.580 182.883,201.776 183.125 C 201.972 183.368,202.408 184.113,202.744 184.781 C 205.008 189.286,215.245 193.061,219.457 190.944 C 219.893 190.725,220.668 190.467,221.179 190.370 C 224.045 189.826,229.315 184.791,229.985 181.958 C 230.081 181.551,230.334 181.016,230.546 180.770 C 230.759 180.524,231.024 179.731,231.134 179.009 C 231.244 178.287,231.482 177.511,231.661 177.284 C 232.123 176.702,232.104 164.294,231.640 162.729 C 231.448 162.084,231.075 160.895,230.812 160.088 C 230.549 159.281,230.256 158.297,230.162 157.902 C 229.600 155.549,225.653 151.138,222.842 149.720 C 220.576 148.578,215.574 147.662,214.380 148.171 " stroke="none" fill="#1574c8" fill-rule="evenodd"></path><path id="path1" d="M195.745 10.871 C 190.245 11.113,181.972 11.697,181.365 11.887 C 181.123 11.963,179.274 12.220,177.256 12.458 C 171.629 13.123,169.026 13.490,167.463 13.840 C 166.677 14.015,165.290 14.256,164.382 14.375 C 163.473 14.494,162.069 14.751,161.262 14.945 C 158.397 15.637,157.139 15.927,155.979 16.165 C 155.334 16.297,153.815 16.685,152.605 17.027 C 151.394 17.370,149.849 17.768,149.171 17.911 C 148.493 18.055,147.700 18.290,147.410 18.435 C 147.120 18.579,145.957 18.991,144.828 19.350 C 143.698 19.709,142.509 20.118,142.186 20.260 C 141.864 20.401,140.742 20.868,139.694 21.297 C 137.232 22.306,133.218 24.289,132.650 24.777 C 132.407 24.986,131.596 25.509,130.848 25.940 C 128.749 27.147,125.208 30.796,124.326 32.662 C 121.424 38.795,125.469 44.941,135.583 49.768 C 137.117 50.499,138.601 51.222,138.881 51.375 C 139.756 51.849,147.251 54.403,150.404 55.301 C 151.372 55.577,152.776 55.991,153.524 56.221 C 154.272 56.451,155.119 56.640,155.406 56.640 C 155.693 56.640,156.600 56.829,157.421 57.060 C 160.029 57.795,164.636 58.697,168.892 59.306 C 170.022 59.468,171.539 59.734,172.263 59.898 C 172.988 60.062,174.940 60.316,176.603 60.462 C 178.266 60.608,179.766 60.814,179.937 60.920 C 180.108 61.025,182.341 61.229,184.899 61.371 C 187.457 61.514,189.896 61.763,190.319 61.923 C 191.397 62.333,228.128 62.319,229.496 61.908 C 230.060 61.738,232.304 61.530,234.483 61.444 C 236.662 61.359,238.841 61.161,239.325 61.004 C 239.809 60.848,241.528 60.602,243.144 60.458 C 244.760 60.314,246.675 60.063,247.399 59.901 C 248.123 59.738,249.707 59.470,250.917 59.306 C 254.448 58.826,259.468 57.829,262.241 57.056 C 263.063 56.827,263.997 56.640,264.317 56.640 C 264.637 56.640,265.484 56.460,266.199 56.241 C 266.913 56.022,268.291 55.610,269.259 55.326 C 290.567 49.072,299.643 41.182,295.366 32.631 C 293.290 28.482,286.726 23.672,279.677 21.134 C 278.628 20.756,277.638 20.364,277.476 20.261 C 276.914 19.905,269.214 17.528,265.737 16.637 C 261.093 15.447,260.272 15.260,259.678 15.260 C 259.327 15.260,258.367 15.073,257.546 14.843 C 255.906 14.384,253.062 13.881,249.890 13.488 C 248.760 13.348,247.043 13.099,246.075 12.936 C 234.504 10.981,213.164 10.105,195.745 10.871 " stroke="none" fill="#abcd28" fill-rule="evenodd"></path><path id="path2" d="M0.000 146.735 L 0.000 293.470 200.000 293.470 L 400.000 293.470 400.000 146.735 L 400.000 0.000 200.000 0.000 L 0.000 0.000 0.000 146.735 M230.081 10.993 C 232.421 11.222,235.459 11.483,236.831 11.573 C 238.202 11.662,240.249 11.931,241.379 12.172 C 242.509 12.412,244.094 12.613,244.901 12.618 C 245.708 12.622,247.095 12.821,247.982 13.059 C 248.870 13.298,250.207 13.494,250.954 13.496 C 251.700 13.498,252.872 13.698,253.558 13.940 C 254.245 14.182,255.367 14.380,256.053 14.380 C 256.739 14.380,257.861 14.578,258.547 14.820 C 259.234 15.062,260.158 15.260,260.603 15.260 C 261.047 15.260,261.884 15.459,262.464 15.701 C 263.043 15.943,263.913 16.141,264.397 16.141 C 264.881 16.141,265.711 16.324,266.241 16.547 C 267.251 16.973,268.952 17.448,271.154 17.920 C 271.874 18.074,272.594 18.331,272.754 18.491 C 272.914 18.651,273.315 18.787,273.646 18.792 C 273.977 18.798,274.776 19.057,275.422 19.369 C 276.067 19.681,276.756 19.941,276.953 19.946 C 277.149 19.951,277.809 20.172,278.420 20.437 C 279.031 20.701,279.795 21.019,280.117 21.142 C 296.500 27.391,301.109 37.801,291.007 45.739 C 280.937 53.652,260.797 59.235,233.015 61.817 C 225.275 62.536,194.249 62.539,186.647 61.821 C 176.257 60.839,165.317 59.216,158.914 57.705 C 157.946 57.476,156.295 57.093,155.246 56.854 C 150.746 55.828,142.837 53.349,140.627 52.272 C 140.355 52.139,139.670 51.832,139.105 51.589 C 117.979 42.507,118.039 30.117,139.252 21.277 C 139.897 21.008,140.859 20.600,141.389 20.372 C 141.919 20.143,142.514 19.951,142.710 19.946 C 142.906 19.941,143.595 19.681,144.241 19.369 C 144.886 19.057,145.745 18.793,146.148 18.783 C 146.552 18.772,147.138 18.570,147.452 18.333 C 147.765 18.096,148.275 17.902,148.586 17.902 C 148.897 17.902,149.829 17.692,150.658 17.435 C 154.394 16.279,154.934 16.140,155.725 16.130 C 156.188 16.125,156.897 15.931,157.300 15.701 C 157.704 15.470,158.533 15.277,159.144 15.271 C 159.754 15.265,160.728 15.062,161.307 14.820 C 161.887 14.578,162.922 14.380,163.609 14.380 C 164.295 14.380,165.418 14.182,166.104 13.940 C 166.790 13.698,167.968 13.500,168.721 13.500 C 169.473 13.500,170.850 13.302,171.780 13.059 C 172.709 12.817,174.046 12.619,174.750 12.619 C 175.454 12.619,177.066 12.420,178.331 12.176 C 179.596 11.932,182.535 11.597,184.862 11.430 C 187.188 11.263,189.235 11.036,189.410 10.926 C 190.397 10.304,223.620 10.359,230.081 10.993 M100.954 41.167 C 100.954 41.535,101.154 42.122,101.400 42.472 C 101.645 42.823,102.206 43.945,102.647 44.966 C 104.485 49.227,110.822 55.794,115.486 58.274 C 115.811 58.447,117.051 59.157,118.240 59.851 C 126.362 64.595,140.874 69.739,153.485 72.344 C 154.857 72.627,156.640 73.029,157.447 73.235 C 158.254 73.442,159.640 73.694,160.528 73.794 C 161.416 73.894,162.539 74.089,163.023 74.226 C 163.507 74.363,165.422 74.684,167.278 74.940 C 169.134 75.195,172.106 75.606,173.881 75.852 C 199.260 79.371,231.231 78.704,257.520 74.107 C 258.811 73.882,260.264 73.638,260.748 73.566 C 261.233 73.493,262.883 73.149,264.417 72.800 C 265.950 72.452,267.733 72.056,268.379 71.920 C 269.024 71.785,270.279 71.473,271.167 71.228 C 272.054 70.982,274.101 70.432,275.715 70.006 C 278.905 69.163,282.122 68.191,283.052 67.789 C 283.375 67.649,283.969 67.450,284.373 67.347 C 285.273 67.116,288.895 65.803,290.095 65.273 C 290.580 65.059,291.650 64.623,292.473 64.305 C 294.746 63.426,301.500 60.036,303.016 59.013 C 303.754 58.515,304.424 58.107,304.504 58.107 C 305.507 58.107,313.548 50.894,315.104 48.598 C 315.552 47.937,315.992 47.329,316.082 47.249 C 316.172 47.168,316.550 46.376,316.922 45.488 C 317.295 44.600,317.772 43.676,317.983 43.434 C 318.193 43.191,318.459 42.488,318.574 41.871 C 318.694 41.222,318.892 40.858,319.041 41.008 C 319.517 41.484,319.353 249.219,318.874 251.798 C 318.261 255.102,317.804 256.121,315.429 259.475 C 312.990 262.920,306.800 268.169,303.155 269.883 C 302.913 269.997,302.252 270.437,301.687 270.861 C 300.572 271.697,295.860 274.056,293.753 274.832 C 292.594 275.259,290.822 276.035,289.290 276.788 C 289.008 276.926,287.952 277.292,286.942 277.601 C 284.572 278.327,278.279 280.252,277.329 280.542 C 271.573 282.299,269.678 282.787,266.471 283.340 C 264.938 283.604,262.891 284.001,261.922 284.223 C 260.391 284.573,256.138 285.289,253.412 285.656 C 252.927 285.721,251.805 285.912,250.917 286.079 C 246.676 286.879,243.108 287.338,240.146 287.466 C 238.362 287.543,236.258 287.744,235.472 287.913 C 232.349 288.586,188.726 288.589,183.651 287.917 C 181.183 287.590,178.549 287.335,177.798 287.351 C 176.348 287.383,171.137 286.682,167.718 285.997 C 164.775 285.407,162.162 284.976,159.734 284.680 C 158.570 284.539,157.462 284.326,157.270 284.208 C 156.860 283.954,153.490 283.274,150.981 282.938 C 150.007 282.808,148.926 282.549,148.579 282.363 C 148.232 282.177,147.576 282.020,147.121 282.015 C 146.667 282.009,145.965 281.815,145.561 281.585 C 145.158 281.354,144.497 281.160,144.094 281.153 C 143.690 281.146,142.991 280.949,142.541 280.713 C 142.090 280.478,141.232 280.198,140.633 280.090 C 140.035 279.982,139.413 279.800,139.252 279.685 C 139.090 279.570,137.968 279.177,136.757 278.810 C 133.005 277.675,129.301 276.378,128.687 275.986 C 128.364 275.779,127.056 275.198,125.780 274.694 C 123.349 273.734,119.719 271.978,117.975 270.918 C 117.410 270.574,116.665 270.168,116.318 270.015 C 115.972 269.862,115.642 269.630,115.585 269.498 C 115.527 269.367,114.160 268.378,112.546 267.301 C 108.399 264.533,103.638 259.434,102.283 256.308 C 102.012 255.683,101.613 254.776,101.397 254.292 C 101.180 253.808,100.905 253.015,100.785 252.531 C 100.495 251.360,100.439 40.499,100.728 40.499 C 100.852 40.499,100.954 40.800,100.954 41.167 M150.990 134.718 C 144.319 135.461,139.441 137.780,135.423 142.120 C 134.381 143.245,133.529 144.287,133.529 144.435 C 133.529 144.583,133.270 145.062,132.953 145.500 C 131.818 147.068,130.888 151.202,130.888 154.678 C 130.888 163.116,135.519 169.083,146.288 174.519 C 156.107 179.475,158.503 181.532,158.960 185.400 C 160.034 194.500,144.538 196.180,133.153 188.197 C 132.182 187.517,131.275 187.029,131.138 187.114 C 130.592 187.451,130.840 200.894,131.401 201.393 C 134.658 204.287,148.988 206.002,156.713 204.421 C 168.638 201.982,174.946 195.177,174.958 184.738 C 174.969 175.777,170.873 170.913,157.691 164.236 C 148.131 159.394,146.230 157.280,146.865 152.198 C 147.696 145.543,160.194 143.996,169.714 149.369 C 172.108 150.720,171.974 151.060,171.974 143.639 L 171.974 137.021 170.994 136.611 C 166.890 134.897,157.428 134.001,150.990 134.718 M210.858 134.839 C 193.344 137.278,182.245 151.112,182.245 170.502 C 182.245 189.622,193.807 203.106,211.844 205.021 C 214.048 205.255,213.780 205.035,218.801 210.712 C 220.871 213.052,223.807 216.321,225.325 217.975 L 228.085 220.983 237.447 220.983 C 248.083 220.983,247.720 221.096,244.948 218.661 C 243.954 217.787,242.145 216.136,240.929 214.992 C 239.714 213.849,236.455 210.822,233.688 208.266 C 227.374 202.435,227.573 202.934,230.961 201.401 C 242.955 195.975,250.079 181.900,248.865 166.031 C 247.235 144.733,231.652 131.944,210.858 134.839 M261.096 135.774 C 260.985 135.884,260.895 151.272,260.895 169.968 L 260.895 203.962 280.992 203.962 L 301.089 203.962 301.252 203.302 C 301.341 202.938,301.377 200.264,301.331 197.359 L 301.247 192.076 288.881 192.000 C 278.997 191.939,276.450 191.845,276.190 191.531 C 275.959 191.252,275.844 183.178,275.790 163.435 L 275.715 135.730 268.506 135.652 C 264.541 135.609,261.206 135.664,261.096 135.774 M221.381 148.194 C 228.814 150.727,233.096 158.787,233.080 170.213 C 233.076 173.330,232.457 178.144,231.863 179.687 C 230.498 183.228,229.312 185.183,227.088 187.553 C 222.330 192.626,212.837 193.563,206.603 189.575 C 194.379 181.755,195.417 155.720,208.217 149.103 C 211.800 147.251,217.466 146.860,221.381 148.194 " stroke="none" fill="#f5f5f5" fill-rule="evenodd"></path><path id="path3" d="M101.024 148.276 L 101.101 252.825 102.070 254.972 C 105.294 262.118,113.923 269.229,125.118 273.968 C 129.672 275.896,130.966 276.456,131.475 276.718 C 131.717 276.843,132.905 277.243,134.116 277.608 C 135.326 277.972,137.224 278.590,138.333 278.980 C 139.442 279.371,140.829 279.812,141.415 279.962 C 142.001 280.111,143.404 280.503,144.534 280.832 C 147.362 281.657,150.151 282.351,151.724 282.621 C 152.450 282.746,154.299 283.125,155.833 283.462 C 162.592 284.949,172.087 286.424,178.723 287.018 C 180.580 287.184,183.287 287.473,184.740 287.660 C 188.448 288.138,227.066 288.333,231.233 287.895 C 232.939 287.715,236.039 287.449,238.120 287.303 C 240.201 287.157,242.843 286.900,243.990 286.732 C 250.120 285.833,259.521 284.309,261.189 283.943 C 262.238 283.712,264.549 283.246,266.324 282.907 C 269.661 282.269,272.532 281.600,273.808 281.164 C 274.211 281.026,275.598 280.621,276.889 280.264 C 278.180 279.907,280.360 279.248,281.731 278.799 C 283.103 278.350,285.138 277.698,286.252 277.350 C 287.367 277.002,288.952 276.407,289.774 276.028 C 290.596 275.648,291.996 275.069,292.883 274.740 C 303.870 270.664,314.465 262.171,317.661 254.879 L 318.562 252.825 318.638 148.423 C 318.699 64.628,318.641 44.023,318.345 44.031 C 318.141 44.036,317.467 45.091,316.845 46.376 C 314.991 50.209,309.435 55.587,303.936 58.873 C 303.155 59.339,302.164 59.948,301.735 60.225 C 300.298 61.151,294.189 64.065,291.269 65.217 C 290.624 65.472,289.409 65.958,288.569 66.298 C 285.771 67.429,279.461 69.426,274.541 70.736 C 270.023 71.939,269.242 72.133,266.911 72.629 C 265.620 72.903,264.035 73.271,263.390 73.447 C 262.744 73.622,261.489 73.869,260.602 73.995 C 257.767 74.396,255.223 74.851,253.363 75.289 C 252.368 75.524,250.982 75.721,250.282 75.728 C 249.582 75.735,248.415 75.865,247.689 76.017 C 242.791 77.041,223.814 78.387,213.296 78.457 C 208.764 78.487,206.668 78.592,207.279 78.758 C 208.682 79.139,227.104 78.810,227.517 78.396 C 227.732 78.181,229.314 78.055,231.974 78.042 C 234.241 78.030,236.823 77.893,237.711 77.736 C 238.599 77.580,241.043 77.287,243.143 77.085 C 245.243 76.883,247.092 76.637,247.252 76.538 C 247.411 76.439,248.665 76.268,250.037 76.157 C 251.409 76.046,253.252 75.769,254.134 75.542 C 255.015 75.314,256.269 75.124,256.922 75.118 C 257.574 75.112,258.437 74.919,258.841 74.688 C 259.244 74.458,260.301 74.259,261.189 74.248 C 262.076 74.237,263.133 74.038,263.536 73.808 C 263.940 73.577,264.864 73.379,265.591 73.368 C 266.317 73.356,267.241 73.158,267.645 72.927 C 268.048 72.697,268.880 72.503,269.494 72.498 C 270.107 72.492,270.965 72.306,271.401 72.085 C 271.837 71.864,272.818 71.592,273.581 71.481 C 274.344 71.370,275.045 71.155,275.139 71.003 C 275.233 70.851,275.665 70.726,276.099 70.726 C 276.806 70.726,278.725 70.171,281.731 69.096 C 282.296 68.894,283.617 68.458,284.666 68.128 C 285.715 67.797,287.300 67.245,288.188 66.900 C 289.076 66.556,290.066 66.199,290.389 66.107 C 290.712 66.015,291.236 65.762,291.555 65.545 C 291.873 65.328,292.312 65.150,292.530 65.150 C 292.967 65.150,300.475 61.496,302.568 60.264 C 304.519 59.116,307.730 57.009,308.187 56.576 C 308.406 56.369,309.243 55.671,310.048 55.026 C 313.165 52.525,316.217 48.971,317.480 46.368 L 318.121 45.048 318.146 147.175 C 318.171 256.191,318.181 252.672,317.865 253.117 C 317.749 253.279,317.341 254.204,316.956 255.172 C 316.572 256.141,315.819 257.513,315.282 258.223 C 314.746 258.932,314.307 259.603,314.307 259.714 C 314.307 261.759,296.177 274.101,293.173 274.101 C 293.009 274.101,292.646 274.229,292.366 274.386 C 291.524 274.855,287.566 276.452,285.840 277.019 C 283.786 277.693,277.677 279.572,275.569 280.177 C 274.681 280.432,273.360 280.812,272.634 281.020 C 270.694 281.578,268.595 282.034,266.743 282.300 C 265.843 282.430,264.829 282.685,264.488 282.867 C 264.147 283.050,263.402 283.199,262.832 283.199 C 262.262 283.199,261.230 283.383,260.539 283.607 C 259.847 283.832,258.517 284.097,257.584 284.198 C 256.651 284.298,255.330 284.507,254.649 284.662 C 252.557 285.138,243.661 286.277,237.271 286.888 C 227.840 287.789,192.099 288.094,184.960 287.334 C 183.305 287.158,180.598 286.870,178.944 286.694 C 177.289 286.518,174.860 286.266,173.544 286.135 C 172.229 286.003,170.447 285.757,169.583 285.587 C 168.719 285.418,167.021 285.124,165.811 284.935 C 161.139 284.204,157.154 283.460,154.219 282.770 C 153.250 282.543,151.401 282.134,150.110 281.862 C 147.821 281.380,145.883 280.870,143.800 280.202 C 143.236 280.020,142.311 279.775,141.746 279.657 C 140.781 279.454,140.148 279.252,137.638 278.341 C 137.073 278.136,135.620 277.669,134.409 277.303 C 133.199 276.936,132.010 276.540,131.768 276.423 C 131.526 276.305,130.139 275.715,128.687 275.111 C 127.234 274.507,124.815 273.439,123.311 272.737 C 121.806 272.035,120.531 271.460,120.476 271.460 C 120.421 271.460,119.006 270.629,117.331 269.613 C 109.332 264.763,104.629 260.021,102.329 254.489 L 101.394 252.238 101.318 148.423 C 101.276 91.324,101.343 44.611,101.465 44.615 C 101.587 44.619,101.939 45.180,102.246 45.862 C 104.726 51.372,112.033 57.713,120.910 62.058 C 124.975 64.049,126.623 64.813,128.247 65.459 C 129.134 65.812,130.257 66.273,130.741 66.484 C 131.738 66.917,139.038 69.318,141.381 69.983 C 142.230 70.224,143.650 70.619,144.538 70.861 C 145.426 71.103,146.845 71.492,147.691 71.725 C 149.818 72.309,151.827 72.764,154.072 73.170 C 155.121 73.359,156.145 73.621,156.347 73.752 C 156.550 73.883,157.606 74.103,158.695 74.240 C 159.784 74.378,161.203 74.631,161.849 74.802 C 162.494 74.974,163.502 75.118,164.087 75.121 C 164.673 75.125,165.626 75.326,166.206 75.569 C 166.847 75.837,168.187 76.009,169.631 76.009 C 171.059 76.009,172.318 76.169,172.795 76.411 C 173.289 76.662,174.583 76.816,176.229 76.820 L 178.870 76.825 176.229 76.592 C 174.776 76.463,173.216 76.213,172.762 76.037 C 172.307 75.860,171.204 75.715,170.309 75.715 C 169.415 75.715,167.805 75.522,166.733 75.287 C 164.529 74.802,161.801 74.331,159.207 73.986 C 158.239 73.857,156.984 73.604,156.420 73.423 C 155.855 73.243,154.072 72.818,152.458 72.480 C 150.844 72.142,148.797 71.668,147.909 71.426 C 147.021 71.184,145.569 70.790,144.681 70.549 C 134.989 67.921,123.549 63.496,118.562 60.447 C 118.320 60.299,117.234 59.650,116.149 59.004 C 109.545 55.073,104.253 49.823,102.407 45.369 C 100.863 41.645,100.942 35.755,101.024 148.276 M180.191 77.198 C 180.594 77.377,183.236 77.645,186.060 77.796 C 188.885 77.946,191.750 78.199,192.426 78.359 C 193.103 78.519,196.339 78.628,199.616 78.602 L 205.576 78.554 200.147 78.334 C 194.557 78.108,182.712 77.319,180.631 77.035 C 179.593 76.893,179.542 76.912,180.191 77.198 M151.577 133.830 C 146.527 134.580,142.242 135.876,140.426 137.201 C 139.941 137.555,139.149 138.050,138.665 138.302 C 137.351 138.984,134.522 141.635,133.793 142.866 C 133.441 143.461,132.848 144.409,132.474 144.974 C 130.932 147.307,130.305 150.063,130.303 154.522 C 130.300 159.458,130.465 160.062,133.207 165.187 C 133.918 166.515,138.280 170.633,140.426 172.001 C 143.119 173.718,143.150 173.735,146.735 175.521 C 153.422 178.852,156.822 181.264,157.576 183.215 C 159.809 188.984,156.942 192.072,148.936 192.524 L 144.828 192.755 149.083 192.675 C 156.659 192.531,160.051 189.380,158.279 184.132 C 157.188 180.897,155.901 179.895,146.735 175.147 C 137.109 170.159,133.291 166.406,131.155 159.830 C 130.458 157.684,130.357 151.222,130.992 149.456 C 131.211 148.847,131.557 147.821,131.761 147.175 C 133.686 141.078,140.379 136.359,149.817 134.445 C 153.055 133.788,164.497 134.378,168.305 135.398 C 172.815 136.606,172.646 136.235,172.510 144.604 C 172.398 151.503,172.496 151.303,169.902 149.889 C 166.838 148.219,164.954 147.581,160.968 146.865 L 160.088 146.707 161.076 147.161 C 161.619 147.411,162.428 147.616,162.875 147.616 C 163.932 147.616,167.231 148.856,169.563 150.130 C 171.589 151.237,172.405 151.379,172.676 150.673 C 172.931 150.008,172.888 137.262,172.629 136.871 C 172.292 136.362,170.748 135.654,169.469 135.423 C 168.829 135.308,168.154 135.094,167.969 134.947 C 167.784 134.801,166.529 134.562,165.181 134.415 C 163.832 134.269,162.069 134.017,161.262 133.857 C 159.583 133.522,153.758 133.506,151.577 133.830 M211.299 133.801 C 211.056 133.940,209.896 134.202,208.720 134.383 C 207.544 134.564,206.355 134.832,206.079 134.980 C 205.802 135.127,204.850 135.465,203.962 135.731 C 196.791 137.879,189.132 144.514,185.868 151.404 C 184.107 155.122,183.418 156.802,183.409 157.401 C 183.403 157.749,183.209 158.364,182.979 158.767 C 182.748 159.171,182.553 159.963,182.544 160.528 C 182.536 161.093,182.339 162.084,182.107 162.729 C 181.590 164.165,181.493 175.846,181.983 177.696 C 182.154 178.342,182.390 179.464,182.506 180.191 C 182.623 180.917,182.876 181.800,183.069 182.152 C 183.261 182.505,183.419 183.007,183.419 183.269 C 183.419 184.130,186.431 190.354,187.814 192.352 C 191.525 197.712,199.845 203.391,205.723 204.578 C 206.449 204.725,207.541 205.042,208.150 205.284 C 208.758 205.525,210.035 205.723,210.987 205.723 C 213.345 205.723,213.314 205.703,216.111 208.932 C 217.471 210.504,218.959 212.175,219.417 212.645 C 219.875 213.115,221.108 214.490,222.157 215.701 C 223.206 216.911,224.130 217.968,224.211 218.048 C 224.292 218.129,224.946 218.855,225.664 219.663 C 228.021 222.311,227.243 222.153,237.895 222.155 C 250.977 222.158,250.816 222.893,239.921 212.913 C 238.159 211.299,235.588 208.905,234.206 207.594 C 232.825 206.283,231.266 204.852,230.741 204.413 C 229.509 203.383,229.539 202.966,230.888 202.363 C 246.892 195.207,254.241 173.986,247.375 154.754 C 244.218 145.910,237.510 138.975,229.054 135.812 C 226.263 134.768,225.734 134.619,224.065 134.407 C 223.096 134.284,221.932 134.036,221.478 133.856 C 220.502 133.470,211.953 133.423,211.299 133.801 M219.809 134.135 C 220.858 134.300,222.509 134.550,223.478 134.690 C 253.569 139.040,259.210 188.450,231.137 201.775 C 229.910 202.358,228.907 202.938,228.907 203.066 C 228.907 203.288,230.677 204.966,239.754 213.353 C 246.918 219.972,247.503 220.572,247.305 221.089 C 247.139 221.521,246.163 221.570,237.760 221.570 C 226.930 221.570,228.229 221.932,224.740 217.947 C 223.587 216.631,221.565 214.365,220.246 212.913 C 218.927 211.460,216.895 209.182,215.731 207.850 L 213.614 205.429 212.027 205.429 C 211.154 205.429,209.279 205.149,207.861 204.807 C 193.803 201.414,185.713 192.875,182.415 177.948 C 181.782 175.082,181.767 165.763,182.392 163.364 C 182.634 162.434,182.834 161.383,182.836 161.028 C 182.843 160.129,184.032 156.410,185.155 153.778 C 188.214 146.608,193.939 140.541,200.490 137.526 C 203.687 136.054,206.716 135.073,209.333 134.661 C 215.084 133.755,216.840 133.667,219.809 134.135 M260.916 134.752 C 260.627 134.859,260.303 135.173,260.198 135.448 C 259.841 136.378,259.987 204.015,260.346 204.448 C 260.764 204.952,300.771 205.039,301.707 204.538 C 302.402 204.166,302.600 192.373,301.922 191.695 C 301.660 191.432,298.457 191.343,289.320 191.343 C 281.489 191.343,277.005 191.237,276.890 191.050 C 276.790 190.889,276.717 178.574,276.727 163.684 C 276.737 148.793,276.636 136.214,276.503 135.730 L 276.261 134.850 268.851 134.703 C 264.776 134.622,261.205 134.644,260.916 134.752 M275.789 135.441 C 276.079 135.539,276.156 141.368,276.156 163.271 C 276.156 186.061,276.225 191.035,276.549 191.303 C 276.820 191.528,280.757 191.653,289.241 191.706 L 301.541 191.783 301.620 197.798 C 301.692 203.195,301.648 203.852,301.197 204.181 C 300.574 204.637,261.613 204.715,260.895 204.262 C 260.161 203.797,260.088 136.391,260.821 135.658 C 261.306 135.172,274.430 134.982,275.789 135.441 M155.476 146.658 C 156.329 146.718,157.649 146.717,158.410 146.657 C 159.172 146.597,158.474 146.548,156.860 146.549 C 155.246 146.550,154.623 146.599,155.476 146.658 M150.990 147.631 C 147.607 149.338,146.269 152.432,147.457 155.801 C 148.456 158.632,150.176 159.992,157.339 163.619 C 163.751 166.865,167.214 169.107,170.239 171.972 C 172.950 174.540,174.825 178.476,175.202 182.392 L 175.400 184.446 175.448 182.603 C 175.578 177.546,171.201 171.028,165.546 167.855 C 165.105 167.608,164.414 167.145,164.010 166.828 C 163.607 166.511,161.205 165.194,158.673 163.903 C 156.141 162.612,153.707 161.369,153.264 161.140 C 147.843 158.346,145.962 153.831,148.589 149.919 C 149.147 149.090,151.172 147.624,151.791 147.602 C 152.523 147.576,153.982 146.785,153.338 146.763 C 153.015 146.752,151.959 147.142,150.990 147.631 M212.357 148.078 C 207.187 149.235,202.617 153.130,200.677 158.034 C 200.422 158.679,200.008 159.736,199.757 160.382 C 198.323 164.068,197.948 171.497,198.956 176.229 C 200.631 184.094,204.242 188.655,210.712 191.078 C 212.319 191.681,218.623 191.772,219.962 191.212 C 220.563 190.961,221.253 190.756,221.494 190.756 C 223.539 190.756,230.361 184.287,230.376 182.334 C 230.377 182.204,230.575 181.720,230.816 181.257 C 233.514 176.084,232.954 160.321,229.934 156.420 C 229.746 156.178,229.247 155.372,228.823 154.630 C 225.911 149.523,218.707 146.657,212.357 148.078 M219.076 148.497 C 223.655 149.299,229.238 154.036,230.162 157.902 C 230.256 158.297,230.549 159.281,230.812 160.088 C 231.075 160.895,231.448 162.084,231.640 162.729 C 232.104 164.294,232.123 176.702,231.661 177.284 C 231.482 177.511,231.244 178.287,231.134 179.009 C 231.024 179.731,230.759 180.524,230.546 180.770 C 230.334 181.016,230.081 181.551,229.985 181.958 C 229.315 184.791,224.045 189.826,221.179 190.370 C 220.668 190.467,219.893 190.725,219.457 190.944 C 215.245 193.061,205.008 189.286,202.744 184.781 C 202.408 184.113,201.972 183.368,201.776 183.125 C 201.580 182.883,201.126 181.959,200.767 181.071 C 200.409 180.183,200.000 179.193,199.859 178.870 C 198.189 175.050,198.570 164.434,200.565 159.208 C 201.868 155.793,206.158 150.257,207.502 150.257 C 207.655 150.257,208.438 149.939,209.243 149.551 C 210.047 149.163,211.400 148.750,212.249 148.634 C 213.098 148.517,214.057 148.309,214.380 148.171 C 215.031 147.894,216.025 147.963,219.076 148.497 M175.258 187.032 C 175.126 191.023,172.945 195.632,169.726 198.724 C 168.505 199.897,164.672 202.494,164.162 202.494 C 164.069 202.494,163.576 202.677,163.067 202.899 C 161.468 203.599,159.544 204.216,158.327 204.421 C 157.682 204.530,156.432 204.801,155.551 205.024 C 149.567 206.538,135.604 204.691,131.401 201.830 L 130.594 201.281 130.594 193.981 C 130.594 185.608,130.504 185.840,133.059 187.664 C 136.521 190.134,143.197 192.923,144.447 192.422 C 144.656 192.338,144.472 192.259,144.038 192.246 C 143.604 192.233,143.176 192.106,143.088 191.963 C 142.999 191.821,142.350 191.617,141.644 191.511 C 140.025 191.269,135.178 188.846,133.091 187.236 C 130.401 185.160,130.460 185.018,130.369 193.826 L 130.291 201.437 131.103 202.102 C 131.549 202.468,132.120 202.772,132.370 202.777 C 132.620 202.783,132.958 202.921,133.120 203.083 C 133.578 203.542,138.956 205.003,141.746 205.428 C 143.909 205.757,153.589 205.755,155.246 205.425 C 160.093 204.460,162.896 203.600,164.930 202.454 C 165.172 202.318,165.965 201.887,166.691 201.498 C 169.470 200.007,173.206 195.759,174.226 192.930 C 175.330 189.871,175.519 188.962,175.420 187.201 L 175.315 185.326 175.258 187.032 " stroke="none" fill="#7ea6d8" fill-rule="evenodd"></path><path id="path4" d="M209.171 10.479 C 209.534 10.549,210.128 10.549,210.492 10.479 C 210.855 10.409,210.558 10.351,209.831 10.351 C 209.105 10.351,208.808 10.409,209.171 10.479 M194.044 10.782 C 195.127 10.839,196.976 10.839,198.153 10.783 C 199.330 10.727,198.445 10.681,196.185 10.681 C 193.925 10.680,192.962 10.726,194.044 10.782 M221.643 10.783 C 222.733 10.839,224.516 10.839,225.605 10.783 C 226.695 10.726,225.803 10.680,223.624 10.680 C 221.445 10.680,220.554 10.726,221.643 10.783 M188.114 11.152 C 186.929 11.336,186.899 11.359,187.821 11.372 C 188.386 11.381,189.574 11.287,190.462 11.164 C 192.055 10.944,192.059 10.941,190.756 10.944 C 190.029 10.945,188.841 11.039,188.114 11.152 M229.200 11.164 C 230.088 11.287,231.277 11.383,231.842 11.377 C 232.665 11.369,232.577 11.322,231.401 11.138 C 230.594 11.013,229.406 10.917,228.760 10.925 C 227.738 10.939,227.795 10.970,229.200 11.164 M182.612 11.648 C 182.894 11.721,183.357 11.721,183.639 11.648 C 183.921 11.574,183.690 11.513,183.125 11.513 C 182.561 11.513,182.329 11.574,182.612 11.648 M236.174 11.653 C 236.539 11.723,237.067 11.720,237.348 11.647 C 237.628 11.574,237.329 11.516,236.684 11.519 C 236.038 11.523,235.809 11.583,236.174 11.653 M238.665 11.941 C 238.947 12.015,239.409 12.015,239.692 11.941 C 239.974 11.867,239.743 11.807,239.178 11.807 C 238.613 11.807,238.382 11.867,238.665 11.941 M172.414 12.913 C 171.666 13.234,172.438 13.234,173.441 12.913 C 174.031 12.724,174.060 12.676,173.588 12.669 C 173.265 12.664,172.737 12.774,172.414 12.913 M246.222 12.913 C 246.625 13.042,247.219 13.148,247.542 13.148 C 248.007 13.148,247.976 13.099,247.395 12.913 C 246.992 12.783,246.398 12.678,246.075 12.678 C 245.610 12.678,245.641 12.727,246.222 12.913 M166.544 13.793 C 166.174 13.952,166.120 14.045,166.398 14.045 C 166.640 14.045,167.102 13.932,167.425 13.793 C 167.795 13.634,167.849 13.541,167.572 13.541 C 167.329 13.541,166.867 13.654,166.544 13.793 M252.238 13.793 C 252.561 13.932,253.023 14.045,253.265 14.045 C 253.542 14.045,253.488 13.952,253.118 13.793 C 252.795 13.654,252.333 13.541,252.091 13.541 C 251.814 13.541,251.868 13.634,252.238 13.793 M257.667 14.820 C 258.232 15.038,258.892 15.216,259.134 15.216 C 259.376 15.216,259.112 15.038,258.547 14.820 C 257.982 14.603,257.322 14.425,257.080 14.425 C 256.838 14.425,257.102 14.603,257.667 14.820 M127.806 28.070 C 126.923 28.860,126.856 28.969,127.539 28.513 C 128.350 27.971,129.370 26.982,129.089 27.010 C 129.029 27.016,128.452 27.493,127.806 28.070 M292.578 28.833 C 293.297 29.600,293.924 30.227,293.972 30.227 C 294.192 30.227,293.959 29.964,292.663 28.748 L 291.269 27.439 292.578 28.833 M123.370 34.172 C 123.281 34.405,123.260 34.834,123.323 35.126 C 123.395 35.457,123.495 35.298,123.590 34.703 C 123.750 33.703,123.646 33.453,123.370 34.172 M100.535 146.075 C 100.552 204.142,100.665 252.047,100.785 252.531 C 100.905 253.015,101.180 253.808,101.397 254.292 C 101.613 254.776,102.012 255.683,102.283 256.308 C 103.638 259.434,108.399 264.533,112.546 267.301 C 114.160 268.378,115.527 269.367,115.585 269.498 C 115.642 269.630,115.972 269.862,116.318 270.015 C 116.665 270.168,117.410 270.574,117.975 270.918 C 119.719 271.978,123.349 273.734,125.780 274.694 C 127.056 275.198,128.364 275.779,128.687 275.986 C 129.301 276.378,133.005 277.675,136.757 278.810 C 137.968 279.177,139.090 279.570,139.252 279.685 C 139.413 279.800,140.035 279.982,140.633 280.090 C 141.232 280.198,142.090 280.478,142.541 280.713 C 142.991 280.949,143.690 281.146,144.094 281.153 C 144.497 281.160,145.158 281.354,145.561 281.585 C 145.965 281.815,146.667 282.009,147.121 282.015 C 147.576 282.020,148.232 282.177,148.579 282.363 C 148.926 282.549,150.007 282.808,150.981 282.938 C 153.115 283.223,156.478 283.910,157.885 284.348 C 158.449 284.523,159.439 284.650,160.086 284.629 L 161.262 284.593 160.088 284.372 C 159.442 284.251,157.594 283.859,155.979 283.500 C 154.365 283.142,152.450 282.746,151.724 282.621 C 150.152 282.351,147.364 281.657,144.534 280.832 C 143.404 280.503,142.001 280.111,141.415 279.962 C 140.829 279.812,139.442 279.371,138.333 278.980 C 137.224 278.590,135.326 277.972,134.116 277.608 C 132.905 277.243,131.717 276.843,131.475 276.718 C 130.966 276.456,129.672 275.896,125.118 273.968 C 113.923 269.229,105.294 262.118,102.070 254.972 L 101.101 252.825 101.024 148.276 C 100.942 35.755,100.863 41.645,102.407 45.369 C 104.253 49.823,109.545 55.073,116.149 59.004 C 117.234 59.650,118.320 60.299,118.562 60.447 C 123.581 63.516,134.705 67.814,144.828 70.595 C 148.668 71.650,149.633 71.889,152.458 72.480 C 154.072 72.818,155.855 73.243,156.420 73.423 C 156.984 73.604,158.239 73.857,159.207 73.986 C 161.888 74.342,164.638 74.813,166.104 75.166 C 166.831 75.341,168.547 75.589,169.919 75.716 C 171.291 75.844,173.272 76.089,174.321 76.262 C 185.274 78.067,212.153 79.033,225.532 78.103 C 237.199 77.293,245.183 76.541,247.689 76.017 C 248.415 75.865,249.582 75.735,250.282 75.728 C 250.982 75.721,252.368 75.524,253.363 75.289 C 255.223 74.851,257.767 74.396,260.602 73.995 C 261.489 73.869,262.744 73.622,263.390 73.447 C 264.035 73.271,265.620 72.903,266.911 72.629 C 269.242 72.133,270.023 71.939,274.541 70.736 C 279.461 69.426,285.771 67.429,288.569 66.298 C 289.409 65.958,290.624 65.472,291.269 65.217 C 294.189 64.065,300.298 61.151,301.735 60.225 C 302.164 59.948,303.155 59.339,303.936 58.873 C 309.435 55.587,314.991 50.209,316.845 46.376 C 317.467 45.091,318.141 44.036,318.345 44.031 C 318.641 44.023,318.699 64.628,318.638 148.423 L 318.562 252.825 317.661 254.879 C 314.465 262.171,303.870 270.664,292.883 274.740 C 291.996 275.069,290.596 275.648,289.774 276.028 C 288.952 276.407,287.367 277.002,286.252 277.350 C 285.138 277.698,283.103 278.350,281.731 278.799 C 280.360 279.248,278.180 279.907,276.889 280.264 C 275.598 280.621,274.211 281.026,273.808 281.164 C 272.532 281.600,269.661 282.269,266.324 282.907 C 264.549 283.246,262.238 283.712,261.189 283.943 C 260.139 284.173,256.310 284.825,252.678 285.393 C 243.365 286.848,242.205 287.013,241.300 287.018 C 240.860 287.021,240.301 287.153,240.059 287.311 C 239.292 287.813,245.399 287.120,250.917 286.079 C 251.805 285.912,252.927 285.721,253.412 285.656 C 256.138 285.289,260.391 284.573,261.922 284.223 C 262.891 284.001,264.938 283.604,266.471 283.340 C 269.678 282.787,271.573 282.299,277.329 280.542 C 278.279 280.252,284.572 278.327,286.942 277.601 C 287.952 277.292,289.008 276.926,289.290 276.788 C 290.822 276.035,292.594 275.259,293.753 274.832 C 295.860 274.056,300.572 271.697,301.687 270.861 C 302.252 270.437,302.913 269.997,303.155 269.883 C 306.800 268.169,312.990 262.920,315.429 259.475 C 317.804 256.121,318.261 255.102,318.874 251.798 C 319.353 249.219,319.517 41.484,319.041 41.008 C 318.892 40.858,318.694 41.222,318.574 41.871 C 318.459 42.488,318.193 43.191,317.983 43.434 C 317.772 43.676,317.295 44.600,316.922 45.488 C 316.550 46.376,316.172 47.168,316.082 47.249 C 315.992 47.329,315.552 47.937,315.104 48.598 C 313.548 50.894,305.507 58.107,304.504 58.107 C 304.424 58.107,303.754 58.515,303.016 59.013 C 301.500 60.036,294.746 63.426,292.473 64.305 C 291.650 64.623,290.580 65.059,290.095 65.273 C 288.895 65.803,285.273 67.116,284.373 67.347 C 283.969 67.450,283.375 67.649,283.052 67.789 C 282.122 68.191,278.905 69.163,275.715 70.006 C 274.101 70.432,272.054 70.982,271.167 71.228 C 270.279 71.473,269.024 71.785,268.379 71.920 C 267.733 72.056,265.950 72.452,264.417 72.800 C 262.883 73.149,261.233 73.493,260.748 73.566 C 260.264 73.638,258.811 73.882,257.520 74.107 C 247.559 75.849,237.972 76.932,225.092 77.771 C 211.562 78.652,187.600 77.754,173.881 75.852 C 172.106 75.606,169.134 75.195,167.278 74.940 C 165.422 74.684,163.507 74.363,163.023 74.226 C 162.539 74.089,161.416 73.894,160.528 73.794 C 159.640 73.694,158.254 73.442,157.447 73.235 C 156.640 73.029,154.857 72.627,153.485 72.344 C 140.874 69.739,126.362 64.595,118.240 59.851 C 117.051 59.157,115.811 58.447,115.486 58.274 C 110.822 55.794,104.485 49.227,102.647 44.966 C 102.206 43.945,101.645 42.823,101.400 42.472 C 101.154 42.122,100.954 41.535,100.954 41.167 C 100.954 40.800,100.852 40.499,100.728 40.499 C 100.604 40.499,100.517 88.008,100.535 146.075 M292.574 44.241 L 291.563 45.341 292.663 44.330 C 293.688 43.388,293.899 43.140,293.675 43.140 C 293.626 43.140,293.130 43.635,292.574 44.241 M143.654 53.390 C 144.299 53.701,145.026 53.960,145.268 53.965 C 145.771 53.977,144.269 53.284,143.195 53.009 C 142.801 52.908,143.008 53.080,143.654 53.390 M275.128 53.569 C 274.395 53.922,274.370 53.963,274.982 53.813 C 275.813 53.610,276.748 53.134,276.302 53.140 C 276.141 53.143,275.613 53.335,275.128 53.569 M146.588 54.449 C 147.073 54.671,147.667 54.853,147.909 54.854 C 148.151 54.855,147.905 54.663,147.362 54.427 C 146.114 53.885,145.401 53.906,146.588 54.449 M272.194 54.449 C 271.709 54.671,271.511 54.852,271.753 54.852 C 271.996 54.852,272.590 54.671,273.074 54.449 C 273.558 54.228,273.756 54.046,273.514 54.046 C 273.272 54.046,272.678 54.228,272.194 54.449 M149.376 55.319 C 150.766 55.854,151.534 55.845,150.296 55.308 C 149.753 55.072,149.093 54.889,148.829 54.901 C 148.565 54.914,148.811 55.102,149.376 55.319 M269.259 55.330 C 268.128 55.847,268.936 55.839,270.286 55.319 C 270.929 55.072,271.094 54.924,270.726 54.925 C 270.404 54.926,269.743 55.108,269.259 55.330 M152.605 56.200 C 153.949 56.717,154.767 56.709,153.632 56.189 C 153.147 55.967,152.487 55.790,152.164 55.795 C 151.783 55.801,151.938 55.943,152.605 56.200 M266.178 56.200 C 264.808 56.727,265.399 56.737,267.058 56.215 C 267.784 55.986,268.114 55.800,267.792 55.801 C 267.469 55.803,266.742 55.982,266.178 56.200 M156.273 57.087 C 158.123 57.601,158.643 57.597,157.300 57.080 C 156.735 56.862,155.943 56.683,155.539 56.682 C 155.115 56.680,155.424 56.851,156.273 57.087 M262.362 57.080 C 261.008 57.602,261.550 57.612,263.390 57.101 C 264.269 56.856,264.563 56.691,264.123 56.688 C 263.720 56.686,262.927 56.862,262.362 57.080 M160.088 57.967 C 160.895 58.191,161.753 58.367,161.996 58.357 C 162.700 58.328,160.164 57.566,159.354 57.563 C 158.930 57.561,159.240 57.732,160.088 57.967 M258.401 57.952 C 256.831 58.470,257.724 58.481,259.574 57.967 C 260.423 57.732,260.732 57.561,260.308 57.563 C 259.905 57.564,259.046 57.739,258.401 57.952 M164.490 58.823 C 166.960 59.318,167.268 59.343,166.683 59.001 C 166.437 58.856,165.380 58.664,164.335 58.574 L 162.436 58.411 164.490 58.823 M253.118 58.988 L 252.531 59.240 253.118 59.231 C 253.441 59.226,254.035 59.117,254.439 58.988 L 255.172 58.753 254.439 58.744 C 254.035 58.739,253.441 58.849,253.118 58.988 M170.653 59.885 C 171.299 60.018,172.091 60.126,172.414 60.124 L 173.001 60.120 172.414 59.868 C 172.091 59.729,171.299 59.622,170.653 59.629 L 169.479 59.642 170.653 59.885 M247.249 59.868 L 246.662 60.120 247.249 60.124 C 247.572 60.126,248.364 60.018,249.010 59.885 L 250.183 59.642 249.010 59.629 C 248.364 59.622,247.572 59.729,247.249 59.868 M177.109 60.765 C 177.755 60.899,178.679 61.000,179.164 60.990 L 180.044 60.972 179.164 60.748 C 178.679 60.625,177.755 60.524,177.109 60.523 L 175.935 60.522 177.109 60.765 M240.106 60.802 C 238.031 61.266,238.853 61.328,241.532 60.910 C 243.385 60.621,243.683 60.522,242.700 60.520 C 241.974 60.519,240.806 60.646,240.106 60.802 M185.620 61.624 C 190.420 62.153,190.932 62.185,190.241 61.910 C 189.878 61.765,188.161 61.584,186.426 61.506 C 183.397 61.371,183.365 61.376,185.620 61.624 M231.255 61.629 L 229.934 61.834 231.255 61.846 C 231.981 61.853,233.368 61.760,234.336 61.640 L 236.097 61.422 234.336 61.423 C 233.368 61.423,231.981 61.516,231.255 61.629 M205.503 62.435 C 207.883 62.485,211.779 62.485,214.160 62.435 C 216.541 62.386,214.593 62.345,209.831 62.345 C 205.070 62.345,203.122 62.386,205.503 62.435 M212.766 134.137 C 207.600 134.897,207.507 134.918,203.962 136.097 C 195.679 138.850,188.740 145.373,185.155 153.778 C 184.032 156.410,182.843 160.129,182.836 161.028 C 182.834 161.383,182.634 162.434,182.392 163.364 C 180.839 169.324,182.297 180.836,185.410 187.200 C 190.544 197.697,201.835 205.429,212.027 205.429 L 213.614 205.429 215.731 207.850 C 216.895 209.182,218.927 211.460,220.246 212.913 C 221.565 214.365,223.587 216.631,224.740 217.947 C 228.229 221.932,226.930 221.570,237.760 221.570 C 246.163 221.570,247.139 221.521,247.305 221.089 C 247.503 220.572,246.918 219.972,239.754 213.353 C 230.677 204.966,228.907 203.288,228.907 203.066 C 228.907 202.938,229.910 202.358,231.137 201.775 C 255.286 190.312,255.748 149.814,231.869 137.531 C 229.388 136.255,225.724 135.014,223.478 134.690 C 222.509 134.550,220.858 134.300,219.809 134.135 C 217.631 133.792,215.107 133.792,212.766 134.137 M149.670 134.463 C 140.383 136.363,133.670 141.128,131.761 147.175 C 131.557 147.821,131.211 148.847,130.992 149.456 C 130.357 151.222,130.458 157.684,131.155 159.830 C 133.291 166.406,137.109 170.159,146.735 175.147 C 155.901 179.895,157.188 180.897,158.279 184.132 C 160.105 189.542,156.611 192.627,148.643 192.642 C 142.226 192.654,138.287 191.394,133.046 187.655 C 130.506 185.842,130.594 185.613,130.594 193.981 L 130.594 201.281 131.401 201.830 C 135.604 204.691,149.567 206.538,155.551 205.024 C 156.432 204.801,157.682 204.530,158.327 204.421 C 159.544 204.216,161.468 203.599,163.067 202.899 C 163.576 202.677,164.069 202.494,164.162 202.494 C 164.672 202.494,168.505 199.897,169.726 198.724 C 177.045 191.694,177.295 178.654,170.239 171.972 C 167.214 169.107,163.751 166.865,157.339 163.619 C 149.054 159.425,147.029 157.430,147.029 153.467 C 147.029 146.123,158.475 144.126,169.249 149.589 C 170.737 150.344,172.058 150.858,172.184 150.732 C 172.462 150.455,172.678 139.091,172.431 137.773 C 171.965 135.289,156.574 133.051,149.670 134.463 M162.109 134.726 C 165.206 135.092,169.577 136.019,170.994 136.611 L 171.974 137.021 171.974 143.639 C 171.974 151.060,172.108 150.720,169.714 149.369 C 160.194 143.996,147.696 145.543,146.865 152.198 C 146.230 157.280,148.131 159.394,157.691 164.236 C 170.873 170.913,174.969 175.777,174.958 184.738 C 174.946 195.177,168.638 201.982,156.713 204.421 C 148.988 206.002,134.658 204.287,131.401 201.393 C 130.840 200.894,130.592 187.451,131.138 187.114 C 131.275 187.029,132.182 187.517,133.153 188.197 C 144.538 196.180,160.034 194.500,158.960 185.400 C 158.503 181.532,156.107 179.475,146.288 174.519 C 135.519 169.083,130.888 163.116,130.888 154.678 C 130.888 151.202,131.818 147.068,132.953 145.500 C 133.270 145.062,133.529 144.583,133.529 144.435 C 133.529 143.847,137.433 139.995,139.331 138.710 C 144.612 135.135,153.065 133.656,162.109 134.726 M220.885 134.723 C 236.769 136.494,247.526 148.530,248.865 166.031 C 250.079 181.900,242.955 195.975,230.961 201.401 C 227.573 202.934,227.374 202.435,233.688 208.266 C 236.455 210.822,239.714 213.849,240.929 214.992 C 242.145 216.136,243.954 217.787,244.948 218.661 C 247.720 221.096,248.083 220.983,237.447 220.983 L 228.085 220.983 225.325 217.975 C 223.807 216.321,220.871 213.052,218.801 210.712 C 213.780 205.035,214.048 205.255,211.844 205.021 C 193.807 203.106,182.245 189.622,182.245 170.502 C 182.245 147.230,198.453 132.222,220.885 134.723 M260.821 135.658 C 260.088 136.391,260.161 203.797,260.895 204.262 C 261.613 204.715,300.574 204.637,301.197 204.181 C 301.648 203.852,301.692 203.195,301.620 197.798 L 301.541 191.783 289.241 191.706 C 280.757 191.653,276.820 191.528,276.549 191.303 C 276.225 191.035,276.156 186.061,276.156 163.271 C 276.156 141.368,276.079 135.539,275.789 135.441 C 274.430 134.982,261.306 135.172,260.821 135.658 M275.790 163.435 C 275.844 183.178,275.959 191.252,276.190 191.531 C 276.450 191.845,278.997 191.939,288.881 192.000 L 301.247 192.076 301.331 197.359 C 301.377 200.264,301.341 202.938,301.252 203.302 L 301.089 203.962 280.992 203.962 L 260.895 203.962 260.895 169.968 C 260.895 151.272,260.985 135.884,261.096 135.774 C 261.206 135.664,264.541 135.609,268.506 135.652 L 275.715 135.730 275.790 163.435 M211.886 147.760 C 194.361 151.733,192.880 184.786,209.940 191.175 C 215.522 193.265,223.263 191.630,227.088 187.553 C 229.312 185.183,230.498 183.228,231.863 179.687 C 232.457 178.144,233.076 173.330,233.080 170.213 C 233.102 154.299,224.277 144.951,211.886 147.760 M220.396 148.314 C 223.912 149.387,227.268 151.902,228.823 154.630 C 229.247 155.372,229.746 156.178,229.934 156.420 C 232.954 160.321,233.514 176.084,230.816 181.257 C 230.575 181.720,230.377 182.204,230.376 182.334 C 230.361 184.287,223.539 190.756,221.494 190.756 C 221.253 190.756,220.563 190.961,219.962 191.212 C 218.623 191.772,212.319 191.681,210.712 191.078 C 204.242 188.655,200.631 184.094,198.956 176.229 C 197.948 171.497,198.323 164.068,199.757 160.382 C 200.008 159.736,200.422 158.679,200.677 158.034 C 203.715 150.356,212.652 145.951,220.396 148.314 M162.047 284.971 C 162.317 285.128,163.374 285.321,164.395 285.398 L 166.251 285.539 164.343 285.121 C 161.992 284.605,161.348 284.563,162.047 284.971 M167.251 285.845 C 167.640 286.012,169.357 286.342,171.066 286.577 C 172.776 286.813,174.901 287.108,175.789 287.235 C 176.676 287.361,177.865 287.389,178.430 287.297 C 179.310 287.154,179.184 287.104,177.550 286.949 C 176.500 286.848,174.123 286.553,172.267 286.293 C 166.782 285.523,166.429 285.491,167.251 285.845 M182.539 287.817 C 184.461 288.150,188.330 288.264,199.413 288.317 L 213.793 288.386 200.440 288.179 C 193.048 288.064,186.236 287.826,185.180 287.646 C 184.131 287.466,182.546 287.334,181.658 287.352 C 180.051 287.384,180.055 287.386,182.539 287.817 M233.749 287.651 C 232.781 287.801,229.743 288.029,226.999 288.157 L 222.010 288.390 225.972 288.428 C 229.664 288.464,233.019 288.227,237.271 287.631 L 239.032 287.384 237.271 287.382 C 236.302 287.380,234.718 287.502,233.749 287.651 " stroke="none" fill="#9abde1" fill-rule="evenodd"></path></g></svg>