<svg id="svg" version="1.1" xmlns="http://www.w3.org/2000/svg" xmlns:xlink="http://www.w3.org/1999/xlink" width="400" height="400" viewBox="0, 0, 400,400"><g id="svgg"><path id="path0" d="M0.000 200.000 L 0.000 400.000 200.000 400.000 L 400.000 400.000 400.000 200.000 L 400.000 0.000 200.000 0.000 L 0.000 0.000 0.000 200.000 M216.495 30.983 C 328.406 42.163,399.633 158.284,358.074 261.800 C 357.632 262.900,356.879 264.790,356.400 266.000 C 332.367 326.699,267.685 369.600,200.200 369.600 C 71.339 369.600,-10.492 231.538,51.192 118.200 C 55.338 110.582,65.429 95.567,67.994 93.200 C 68.113 93.090,69.016 92.010,69.999 90.800 C 80.418 77.983,97.123 63.733,113.001 54.116 C 124.051 47.424,137.130 41.680,151.800 37.077 C 160.070 34.482,175.375 31.615,185.200 30.819 C 188.170 30.579,191.230 30.312,192.000 30.227 C 194.934 29.901,210.469 30.381,216.495 30.983 M270.442 98.807 C 248.174 103.509,242.509 132.810,261.420 145.479 C 267.783 149.742,279.276 151.083,284.481 148.170 C 285.314 147.705,285.448 147.858,270.989 132.800 C 265.616 127.205,265.606 127.159,269.063 124.047 C 270.128 123.088,271.900 121.466,273.000 120.443 C 274.100 119.419,278.628 115.224,283.063 111.120 C 292.032 102.819,291.644 103.573,288.000 101.523 C 283.420 98.945,275.551 97.728,270.442 98.807 M290.717 108.663 C 288.374 110.895,275.933 122.373,271.654 126.250 C 270.432 127.357,270.267 127.114,277.252 134.452 C 280.471 137.834,284.228 141.815,285.601 143.300 C 288.587 146.529,288.618 146.532,291.788 144.010 C 302.916 135.154,304.481 116.246,294.847 107.042 L 293.635 105.884 290.717 108.663 M295.116 119.700 C 297.243 122.270,296.126 132.198,293.621 132.993 C 291.861 133.552,291.078 131.793,292.147 129.680 C 293.139 127.719,293.268 125.724,292.581 122.984 C 291.765 119.730,293.394 117.619,295.116 119.700 M239.479 140.451 C 225.947 141.741,212.006 150.570,191.556 170.800 C 183.375 178.893,169.993 193.953,170.003 195.056 C 170.006 195.394,184.221 209.292,184.792 209.514 C 185.201 209.673,252.013 142.436,252.139 141.739 C 252.321 140.729,244.696 139.953,239.479 140.451 M248.839 149.881 C 243.423 155.476,238.544 160.421,202.494 196.852 C 194.302 205.130,187.600 212.063,187.600 212.258 C 187.600 212.453,189.637 214.644,192.127 217.127 L 196.654 221.642 205.567 212.521 C 210.469 207.504,219.285 198.540,225.158 192.600 C 257.425 159.966,258.753 158.070,256.418 147.965 C 255.310 143.169,255.345 143.160,248.839 149.881 M253.980 167.445 C 251.916 170.310,246.201 176.200,204.640 218.298 L 199.015 223.996 202.198 227.198 C 205.973 230.995,205.493 230.912,208.546 228.302 C 231.363 208.797,249.264 185.793,255.066 168.517 C 256.375 164.620,256.164 164.412,253.980 167.445 M159.660 206.992 C 150.560 217.674,150.381 218.118,155.637 216.965 C 157.047 216.656,159.460 216.138,161.000 215.815 C 162.540 215.492,165.510 214.853,167.600 214.395 C 169.690 213.937,173.020 213.223,175.000 212.808 C 176.980 212.393,178.915 211.952,179.300 211.827 C 179.685 211.702,180.305 211.502,180.678 211.383 C 181.391 211.154,168.698 198.000,167.764 198.000 C 167.520 198.000,163.873 202.046,159.660 206.992 M180.440 219.483 C 174.390 225.859,174.438 226.328,181.018 225.187 C 183.428 224.770,187.155 224.124,189.300 223.753 C 191.445 223.381,193.200 222.957,193.200 222.811 C 193.200 222.522,186.096 215.534,185.340 215.079 C 185.065 214.914,183.101 216.679,180.440 219.483 M193.200 226.461 C 190.636 226.993,183.193 228.327,179.200 228.971 C 177.330 229.272,174.360 229.810,172.600 230.166 L 169.400 230.814 165.028 235.307 C 162.623 237.778,158.123 242.413,155.028 245.607 C 151.932 248.801,144.336 256.631,138.147 263.007 C 121.800 279.849,118.816 282.972,118.807 283.246 C 118.794 283.697,138.053 302.198,138.683 302.339 C 140.084 302.654,140.062 301.914,138.471 295.200 C 135.060 280.802,135.187 281.791,136.649 280.994 C 155.952 270.470,168.551 261.128,196.520 236.604 L 201.990 231.809 199.105 228.904 C 197.518 227.307,195.946 226.020,195.610 226.044 C 195.275 226.068,194.190 226.256,193.200 226.461 M108.236 293.564 C 102.553 299.253,100.355 301.705,100.530 302.161 C 100.749 302.732,102.532 302.799,117.287 302.795 L 133.800 302.790 127.800 296.961 C 124.500 293.754,120.537 289.888,118.993 288.368 L 116.187 285.606 108.236 293.564 " stroke="none" fill="#fcfbfb" fill-rule="evenodd"></path><path id="path1" d="M186.800 31.027 C 186.470 31.116,183.140 31.550,179.400 31.993 C 170.897 32.999,161.850 34.686,156.600 36.245 C 155.500 36.571,153.340 37.208,151.800 37.660 C 145.332 39.556,138.717 41.919,134.540 43.825 C 133.846 44.141,133.153 44.400,132.998 44.400 C 131.545 44.400,114.405 53.615,107.800 57.947 C 86.984 71.600,65.575 93.617,55.435 111.800 C 55.067 112.460,54.056 114.170,53.189 115.600 C 51.438 118.486,45.067 131.231,44.591 132.800 C 44.425 133.350,43.953 134.427,43.544 135.194 C 43.135 135.961,42.800 136.744,42.800 136.934 C 42.800 137.124,42.538 137.846,42.218 138.540 C 41.366 140.385,37.355 152.572,36.603 155.600 C 33.721 167.202,32.723 172.900,31.416 185.200 C 30.711 191.838,30.587 207.522,31.199 212.773 C 31.419 214.658,31.870 218.540,32.201 221.400 C 33.003 228.334,34.648 237.042,36.237 242.771 C 37.953 248.956,39.959 255.438,40.764 257.400 C 40.945 257.840,41.502 259.280,42.001 260.600 C 42.501 261.920,43.141 263.540,43.424 264.200 C 43.707 264.860,44.516 266.750,45.221 268.400 C 55.278 291.927,74.939 317.266,95.200 332.812 C 97.337 334.452,97.356 334.466,99.400 336.047 C 107.241 342.112,127.630 353.783,133.200 355.394 C 133.750 355.553,134.560 355.903,135.000 356.171 C 137.735 357.841,154.634 363.217,162.800 365.017 C 189.520 370.904,217.814 370.342,244.000 363.402 C 247.293 362.529,256.217 359.700,257.800 359.027 C 258.460 358.747,260.170 358.098,261.600 357.586 C 263.030 357.073,264.560 356.436,265.000 356.169 C 265.440 355.902,266.250 355.553,266.800 355.394 C 268.387 354.935,279.828 349.278,284.000 346.890 C 302.122 336.515,319.817 321.347,332.403 305.400 C 344.690 289.831,354.183 272.497,360.115 254.800 C 361.386 251.010,361.936 249.205,363.833 242.600 C 370.801 218.343,370.801 181.257,363.833 157.000 C 363.517 155.900,362.872 153.650,362.399 152.000 C 361.365 148.395,359.713 143.475,358.952 141.740 C 358.649 141.046,358.400 140.304,358.400 140.090 C 358.400 139.674,357.826 138.285,354.563 130.800 C 336.133 88.528,295.552 51.997,252.600 39.014 C 250.620 38.415,248.536 37.753,247.968 37.543 C 243.592 35.918,230.340 33.196,220.600 31.922 C 214.646 31.143,188.896 30.461,186.800 31.027 M284.668 99.482 C 287.889 100.835,291.018 102.581,291.437 103.260 C 291.597 103.518,290.880 104.505,289.758 105.572 C 287.445 107.772,278.205 116.305,272.620 121.400 C 265.641 127.766,265.909 126.730,270.100 131.133 C 281.757 143.380,285.414 147.328,285.518 147.773 C 285.867 149.271,277.298 150.701,272.110 150.011 C 250.463 147.130,241.851 120.397,257.661 105.154 C 264.706 98.362,276.239 95.940,284.668 99.482 M295.732 107.300 C 305.387 119.148,303.243 136.155,290.950 145.237 C 288.405 147.117,288.453 147.113,287.089 145.559 C 286.490 144.876,282.992 141.141,279.315 137.259 C 275.639 133.376,272.054 129.591,271.349 128.846 C 269.805 127.216,269.808 127.210,273.144 124.223 C 274.605 122.915,277.777 120.035,280.194 117.823 C 284.176 114.176,285.953 112.535,291.600 107.283 C 293.835 105.204,294.025 105.205,295.732 107.300 M292.675 120.149 C 292.559 120.452,292.742 121.802,293.081 123.149 C 293.647 125.395,293.642 125.810,293.021 128.100 C 291.893 132.262,291.892 132.273,292.518 132.513 C 295.117 133.511,296.757 126.520,295.195 121.100 C 294.743 119.532,293.143 118.928,292.675 120.149 M248.200 139.996 C 251.065 140.464,252.806 141.130,252.784 141.749 C 252.775 141.997,237.484 157.590,218.804 176.400 L 184.840 210.600 177.010 202.789 L 169.180 194.978 170.290 193.628 C 184.076 176.865,198.955 161.978,210.600 153.298 C 217.969 147.806,224.302 143.921,228.145 142.536 C 234.973 140.075,242.695 139.098,248.200 139.996 M256.060 145.300 C 257.550 147.995,257.471 156.582,255.930 159.260 C 252.200 165.745,250.998 167.081,226.683 191.743 C 214.537 204.063,202.854 215.921,200.720 218.096 C 196.135 222.768,197.017 222.883,191.007 216.826 L 186.613 212.399 191.271 207.700 C 193.832 205.115,197.143 201.740,198.627 200.200 C 200.886 197.857,248.160 149.922,252.932 145.136 C 254.840 143.222,254.912 143.226,256.060 145.300 M257.200 163.388 C 257.200 163.771,255.150 169.876,254.309 172.000 C 251.158 179.950,242.369 193.905,235.530 201.819 C 234.968 202.469,233.192 204.530,231.582 206.400 C 224.788 214.292,207.258 230.800,205.672 230.800 C 204.738 230.800,198.684 224.665,198.861 223.897 C 198.937 223.564,209.277 212.875,221.837 200.145 C 252.494 169.074,251.269 170.350,254.082 166.553 C 256.230 163.652,257.200 162.667,257.200 163.388 M174.942 204.193 C 182.292 211.418,182.505 211.732,180.310 212.128 C 179.589 212.258,176.840 212.841,174.200 213.424 C 166.273 215.174,164.766 215.500,160.800 216.329 C 158.710 216.765,156.063 217.349,154.919 217.626 C 153.233 218.033,152.719 218.031,152.219 217.615 C 150.934 216.550,151.435 215.771,158.942 207.156 C 159.634 206.362,161.812 203.797,163.782 201.456 C 165.752 199.115,167.468 197.200,167.596 197.200 C 167.723 197.200,171.029 200.347,174.942 204.193 M189.800 218.596 C 194.962 223.477,195.005 223.270,188.600 224.389 C 175.361 226.702,175.200 226.709,175.200 224.933 C 175.200 224.286,184.387 214.450,185.000 214.441 C 185.220 214.438,187.380 216.307,189.800 218.596 M199.398 228.534 C 202.909 231.967,202.885 231.876,200.739 233.601 C 199.825 234.336,195.550 238.014,191.239 241.775 C 173.979 256.834,164.919 263.991,154.600 270.720 C 151.740 272.585,148.950 274.416,148.400 274.789 C 146.681 275.956,138.858 280.400,138.521 280.402 C 138.344 280.403,137.671 280.827,137.025 281.344 L 135.850 282.285 136.758 286.042 C 137.258 288.109,138.020 291.330,138.450 293.200 C 138.881 295.070,139.496 297.632,139.817 298.894 C 140.571 301.862,140.556 302.110,139.585 302.716 C 138.454 303.423,138.476 303.441,127.721 292.739 C 119.137 284.196,117.858 282.720,118.700 282.326 C 118.865 282.249,121.250 279.847,124.000 276.988 C 126.750 274.130,131.882 268.823,135.404 265.195 C 157.172 242.776,164.594 235.111,166.738 232.835 C 169.133 230.292,169.181 230.266,172.277 229.741 C 173.995 229.451,177.380 228.851,179.800 228.408 C 182.220 227.966,185.910 227.325,188.000 226.984 C 190.090 226.643,192.340 226.210,193.000 226.023 C 195.726 225.248,196.244 225.451,199.398 228.534 M124.510 293.100 C 134.210 302.690,134.000 302.474,134.000 302.875 C 134.000 303.054,126.443 303.200,117.208 303.200 L 100.415 303.200 100.158 302.174 C 99.919 301.224,115.090 285.200,116.228 285.200 C 116.389 285.200,120.116 288.755,124.510 293.100 " stroke="none" fill="#f45c24" fill-rule="evenodd"></path><path id="path2" d="M196.121 30.698 C 198.277 30.771,201.697 30.770,203.721 30.698 C 205.744 30.625,203.980 30.566,199.800 30.567 C 195.620 30.567,193.964 30.626,196.121 30.698 M181.900 31.482 C 182.395 31.578,183.205 31.578,183.700 31.482 C 184.195 31.387,183.790 31.309,182.800 31.309 C 181.810 31.309,181.405 31.387,181.900 31.482 M215.900 31.482 C 216.395 31.578,217.205 31.578,217.700 31.482 C 218.195 31.387,217.790 31.309,216.800 31.309 C 215.810 31.309,215.405 31.387,215.900 31.482 M235.600 34.382 C 235.930 34.605,236.545 34.791,236.967 34.794 C 237.990 34.802,237.671 34.573,236.200 34.244 C 235.324 34.048,235.162 34.085,235.600 34.382 M310.800 71.725 C 310.800 71.794,311.385 72.379,312.100 73.025 L 313.400 74.200 312.225 72.900 C 311.130 71.688,310.800 71.416,310.800 71.725 M319.400 80.000 C 321.812 82.420,323.876 84.400,323.986 84.400 C 324.096 84.400,322.212 82.420,319.800 80.000 C 317.388 77.580,315.324 75.600,315.214 75.600 C 315.104 75.600,316.988 77.580,319.400 80.000 M79.993 80.300 L 75.800 84.600 80.100 80.407 C 82.465 78.101,84.400 76.166,84.400 76.107 C 84.400 75.818,83.887 76.306,79.993 80.300 M326.000 86.925 C 326.000 86.994,326.585 87.579,327.300 88.225 L 328.600 89.400 327.425 88.100 C 326.330 86.888,326.000 86.616,326.000 86.925 M280.833 98.544 C 280.925 98.623,281.540 98.808,282.200 98.956 C 283.076 99.152,283.238 99.115,282.800 98.818 C 282.260 98.453,280.432 98.198,280.833 98.544 M257.178 105.500 L 255.800 107.000 257.300 105.622 C 258.696 104.338,258.984 104.000,258.678 104.000 C 258.612 104.000,257.937 104.675,257.178 105.500 M289.375 105.700 L 288.200 107.000 289.500 105.825 C 290.215 105.179,290.800 104.594,290.800 104.525 C 290.800 104.216,290.470 104.488,289.375 105.700 M284.000 110.600 C 283.028 111.590,282.323 112.400,282.433 112.400 C 282.543 112.400,283.428 111.590,284.400 110.600 C 285.372 109.610,286.077 108.800,285.967 108.800 C 285.857 108.800,284.972 109.610,284.000 110.600 M288.378 110.300 L 287.000 111.800 288.500 110.422 C 289.896 109.138,290.184 108.800,289.878 108.800 C 289.812 108.800,289.137 109.475,288.378 110.300 M278.786 115.500 L 276.600 117.800 278.900 115.614 C 280.165 114.411,281.200 113.376,281.200 113.314 C 281.200 113.017,280.818 113.363,278.786 115.500 M282.981 115.300 L 281.400 117.000 283.100 115.419 C 284.681 113.948,284.984 113.600,284.681 113.600 C 284.616 113.600,283.851 114.365,282.981 115.300 M250.229 117.029 C 250.081 117.615,250.038 118.172,250.132 118.266 C 250.227 118.360,250.424 117.958,250.571 117.371 C 250.719 116.785,250.762 116.228,250.668 116.134 C 250.573 116.040,250.376 116.442,250.229 117.029 M274.581 119.300 L 273.000 121.000 274.700 119.419 C 276.281 117.948,276.584 117.600,276.281 117.600 C 276.216 117.600,275.451 118.365,274.581 119.300 M301.062 119.000 C 301.196 119.880,301.372 120.675,301.453 120.767 C 301.756 121.110,301.529 118.968,301.181 118.200 C 300.929 117.642,300.893 117.885,301.062 119.000 M278.181 119.700 L 276.600 121.400 278.300 119.819 C 279.881 118.348,280.184 118.000,279.881 118.000 C 279.816 118.000,279.051 118.765,278.181 119.700 M273.381 124.100 L 271.800 125.800 273.500 124.219 C 275.081 122.748,275.384 122.400,275.081 122.400 C 275.016 122.400,274.251 123.165,273.381 124.100 M301.714 124.200 C 301.717 125.300,301.795 125.703,301.887 125.095 C 301.979 124.486,301.977 123.586,301.882 123.095 C 301.787 122.603,301.711 123.100,301.714 124.200 M293.293 125.600 C 293.293 126.370,293.375 126.685,293.476 126.300 C 293.576 125.915,293.576 125.285,293.476 124.900 C 293.375 124.515,293.293 124.830,293.293 125.600 M270.400 131.800 C 271.817 133.230,273.067 134.400,273.177 134.400 C 273.287 134.400,272.217 133.230,270.800 131.800 C 269.383 130.370,268.133 129.200,268.023 129.200 C 267.913 129.200,268.983 130.370,270.400 131.800 M273.200 130.910 C 273.200 130.971,274.595 132.366,276.300 134.010 L 279.400 137.000 276.410 133.900 C 273.633 131.021,273.200 130.617,273.200 130.910 M277.183 138.900 C 278.841 140.666,279.200 140.984,279.200 140.683 C 279.200 140.619,278.345 139.764,277.300 138.783 L 275.400 137.000 277.183 138.900 M279.600 137.710 C 279.600 137.771,280.995 139.166,282.700 140.810 L 285.800 143.800 282.810 140.700 C 280.033 137.821,279.600 137.417,279.600 137.710 M241.900 139.893 C 242.835 139.977,244.365 139.977,245.300 139.893 C 246.235 139.809,245.470 139.740,243.600 139.740 C 241.730 139.740,240.965 139.809,241.900 139.893 M243.997 150.700 L 235.400 159.400 244.100 150.803 C 248.885 146.075,252.800 142.160,252.800 142.103 C 252.800 141.820,251.984 142.616,243.997 150.700 M257.600 142.925 C 257.600 142.994,258.185 143.579,258.900 144.225 L 260.200 145.400 259.025 144.100 C 257.930 142.888,257.600 142.616,257.600 142.925 M283.252 145.400 C 284.271 146.500,285.202 147.670,285.321 148.000 C 285.509 148.523,285.541 148.521,285.568 147.985 C 285.586 147.647,284.655 146.477,283.500 145.385 L 281.400 143.400 283.252 145.400 M287.549 146.100 C 288.156 146.873,289.019 147.016,289.397 146.405 C 289.538 146.177,289.376 146.111,289.016 146.249 C 288.671 146.381,288.077 146.244,287.695 145.945 C 287.066 145.452,287.052 145.467,287.549 146.100 M246.975 151.300 L 245.800 152.600 247.100 151.425 C 247.815 150.779,248.400 150.194,248.400 150.125 C 248.400 149.816,248.070 150.088,246.975 151.300 M274.505 150.287 C 275.114 150.379,276.014 150.377,276.505 150.282 C 276.997 150.187,276.500 150.111,275.400 150.114 C 274.300 150.117,273.897 150.195,274.505 150.287 M238.995 159.300 L 232.600 165.800 239.100 159.405 C 245.139 153.463,245.781 152.800,245.495 152.800 C 245.438 152.800,242.513 155.725,238.995 159.300 M204.175 158.500 L 203.000 159.800 204.300 158.625 C 205.015 157.979,205.600 157.394,205.600 157.325 C 205.600 157.016,205.270 157.288,204.175 158.500 M201.375 160.900 L 200.200 162.200 201.500 161.025 C 202.215 160.379,202.800 159.794,202.800 159.725 C 202.800 159.416,202.470 159.688,201.375 160.900 M232.388 162.300 L 229.800 165.000 232.500 162.412 C 233.985 160.988,235.200 159.773,235.200 159.712 C 235.200 159.417,234.793 159.792,232.388 162.300 M34.446 163.267 C 34.421 163.634,34.296 164.264,34.170 164.667 C 33.952 165.362,33.963 165.363,34.397 164.687 C 34.648 164.296,34.773 163.666,34.673 163.287 C 34.511 162.668,34.488 162.666,34.446 163.267 M197.381 164.500 L 195.800 166.200 197.500 164.619 C 199.081 163.148,199.384 162.800,199.081 162.800 C 199.016 162.800,198.251 163.565,197.381 164.500 M242.196 175.700 L 235.400 182.600 242.300 175.804 C 248.710 169.491,249.381 168.800,249.096 168.800 C 249.038 168.800,245.933 171.905,242.196 175.700 M184.185 177.700 L 182.200 179.800 184.300 177.815 C 185.455 176.723,186.400 175.778,186.400 175.715 C 186.400 175.417,186.029 175.749,184.185 177.700 M31.693 180.800 C 31.693 181.570,31.775 181.885,31.876 181.500 C 31.976 181.115,31.976 180.485,31.876 180.100 C 31.775 179.715,31.693 180.030,31.693 180.800 M233.796 188.100 L 226.200 195.800 233.900 188.204 C 241.054 181.146,241.781 180.400,241.496 180.400 C 241.439 180.400,237.974 183.865,233.796 188.100 M179.781 182.500 L 178.200 184.200 179.900 182.619 C 181.481 181.148,181.784 180.800,181.481 180.800 C 181.416 180.800,180.651 181.565,179.781 182.500 M208.796 189.900 L 200.600 198.200 208.900 190.004 C 213.465 185.496,217.200 181.761,217.200 181.704 C 217.200 181.419,216.412 182.188,208.796 189.900 M368.501 183.400 C 368.505 184.280,368.587 184.593,368.683 184.095 C 368.779 183.598,368.775 182.878,368.675 182.495 C 368.575 182.113,368.496 182.520,368.501 183.400 M31.309 184.400 C 31.309 185.390,31.387 185.795,31.482 185.300 C 31.578 184.805,31.578 183.995,31.482 183.500 C 31.387 183.005,31.309 183.410,31.309 184.400 M209.785 185.300 L 207.800 187.400 209.900 185.415 C 211.851 183.571,212.183 183.200,211.885 183.200 C 211.822 183.200,210.877 184.145,209.785 185.300 M368.893 187.600 C 368.893 188.370,368.975 188.685,369.076 188.300 C 369.176 187.915,369.176 187.285,369.076 186.900 C 368.975 186.515,368.893 186.830,368.893 187.600 M195.797 199.300 L 185.800 209.400 195.900 199.403 C 205.285 190.113,206.180 189.200,205.897 189.200 C 205.840 189.200,201.295 193.745,195.797 199.300 M369.354 199.600 C 369.354 202.350,369.418 203.475,369.496 202.100 C 369.574 200.725,369.574 198.475,369.496 197.100 C 369.418 195.725,369.354 196.850,369.354 199.600 M214.795 203.500 L 208.200 210.200 214.900 203.605 C 218.585 199.977,221.600 196.962,221.600 196.905 C 221.600 196.619,220.923 197.275,214.795 203.500 M30.534 200.000 C 30.534 201.650,30.605 202.325,30.691 201.500 C 30.778 200.675,30.778 199.325,30.691 198.500 C 30.605 197.675,30.534 198.350,30.534 200.000 M178.684 204.389 C 182.030 207.786,184.820 210.483,184.884 210.383 C 184.948 210.282,182.210 207.503,178.800 204.206 L 172.600 198.213 178.684 204.389 M164.575 200.500 L 163.400 201.800 164.700 200.625 C 165.912 199.530,166.184 199.200,165.875 199.200 C 165.806 199.200,165.221 199.785,164.575 200.500 M230.175 207.700 L 229.000 209.000 230.300 207.825 C 231.015 207.179,231.600 206.594,231.600 206.525 C 231.600 206.216,231.270 206.488,230.175 207.700 M206.196 216.100 L 198.600 223.800 206.300 216.204 C 210.535 212.026,214.000 208.561,214.000 208.504 C 214.000 208.219,213.254 208.946,206.196 216.100 M187.990 211.010 L 186.624 212.420 191.410 217.110 L 196.196 221.800 191.612 217.108 L 187.028 212.415 188.393 211.008 C 189.143 210.233,189.667 209.600,189.557 209.600 C 189.447 209.600,188.742 210.234,187.990 211.010 M30.893 212.000 C 30.893 212.770,30.975 213.085,31.076 212.700 C 31.176 212.315,31.176 211.685,31.076 211.300 C 30.975 210.915,30.893 211.230,30.893 212.000 M222.192 216.100 L 218.600 219.800 222.300 216.208 C 225.736 212.872,226.182 212.400,225.892 212.400 C 225.832 212.400,224.167 214.065,222.192 216.100 M31.314 215.800 C 31.317 216.900,31.395 217.303,31.487 216.695 C 31.579 216.086,31.577 215.186,31.482 214.695 C 31.387 214.203,31.311 214.700,31.314 215.800 M183.762 215.300 C 183.001 216.199,183.001 216.199,183.831 215.500 C 184.929 214.576,185.141 214.607,186.578 215.900 L 187.800 217.000 186.625 215.700 C 185.235 214.162,184.780 214.098,183.762 215.300 M368.509 216.000 C 368.509 216.990,368.587 217.395,368.682 216.900 C 368.778 216.405,368.778 215.595,368.682 215.100 C 368.587 214.605,368.509 215.010,368.509 216.000 M151.640 216.220 C 151.586 217.330,152.348 218.010,153.580 217.953 C 154.540 217.908,154.530 217.890,153.418 217.652 C 152.612 217.479,152.147 217.081,151.958 216.399 C 151.725 215.561,151.673 215.533,151.640 216.220 M368.093 219.200 C 368.093 219.970,368.175 220.285,368.276 219.900 C 368.376 219.515,368.376 218.885,368.276 218.500 C 368.175 218.115,368.093 218.430,368.093 219.200 M177.586 221.900 L 175.400 224.200 177.700 222.014 C 179.837 219.982,180.183 219.600,179.886 219.600 C 179.824 219.600,178.789 220.635,177.586 221.900 M192.107 221.017 C 193.801 222.852,193.876 223.069,192.900 223.324 C 192.269 223.489,192.267 223.512,192.876 223.554 C 194.260 223.649,194.057 222.671,192.357 221.056 L 190.613 219.400 192.107 221.017 M213.781 224.100 L 212.200 225.800 213.900 224.219 C 215.481 222.748,215.784 222.400,215.481 222.400 C 215.416 222.400,214.651 223.165,213.781 224.100 M175.225 224.851 C 175.189 225.783,176.202 226.491,177.278 226.285 C 178.087 226.131,178.063 226.102,177.087 226.054 C 176.337 226.018,175.856 225.706,175.612 225.100 C 175.368 224.491,175.243 224.410,175.225 224.851 M201.800 227.600 C 203.550 229.360,205.071 230.800,205.181 230.800 C 205.291 230.800,203.950 229.360,202.200 227.600 C 200.450 225.840,198.929 224.400,198.819 224.400 C 198.709 224.400,200.050 225.840,201.800 227.600 M194.500 225.876 C 194.885 225.976,195.515 225.976,195.900 225.876 C 196.285 225.775,195.970 225.693,195.200 225.693 C 194.430 225.693,194.115 225.775,194.500 225.876 M196.575 236.900 L 195.400 238.200 196.700 237.025 C 197.912 235.930,198.184 235.600,197.875 235.600 C 197.806 235.600,197.221 236.185,196.575 236.900 M159.791 240.100 L 156.600 243.400 159.900 240.209 C 162.965 237.246,163.382 236.800,163.091 236.800 C 163.030 236.800,161.545 238.285,159.791 240.100 M184.175 247.700 L 183.000 249.000 184.300 247.825 C 185.512 246.730,185.784 246.400,185.475 246.400 C 185.406 246.400,184.821 246.985,184.175 247.700 M145.793 254.500 L 141.400 259.000 145.900 254.607 C 148.375 252.191,150.400 250.166,150.400 250.107 C 150.400 249.818,149.874 250.320,145.793 254.500 M360.444 253.644 C 360.198 254.351,360.066 255.000,360.152 255.085 C 360.238 255.171,360.509 254.662,360.756 253.956 C 361.002 253.249,361.134 252.600,361.048 252.515 C 360.962 252.429,360.691 252.938,360.444 253.644 M176.575 254.100 L 175.400 255.400 176.700 254.225 C 177.912 253.130,178.184 252.800,177.875 252.800 C 177.806 252.800,177.221 253.385,176.575 254.100 M133.193 267.500 L 128.600 272.200 133.300 267.607 C 135.885 265.080,138.000 262.965,138.000 262.907 C 138.000 262.618,137.460 263.134,133.193 267.500 M122.391 278.700 L 119.000 282.200 122.500 278.809 C 125.751 275.659,126.182 275.200,125.891 275.200 C 125.831 275.200,124.256 276.775,122.391 278.700 M123.194 292.100 C 128.206 297.209,128.800 297.781,128.800 297.494 C 128.800 297.436,126.325 294.961,123.300 291.994 L 117.800 286.600 123.194 292.100 M108.175 292.900 L 107.000 294.200 108.300 293.025 C 109.512 291.930,109.784 291.600,109.475 291.600 C 109.406 291.600,108.821 292.185,108.175 292.900 M132.600 297.600 C 135.233 300.240,137.477 302.400,137.587 302.400 C 137.697 302.400,135.633 300.240,133.000 297.600 C 130.367 294.960,128.123 292.800,128.013 292.800 C 127.903 292.800,129.967 294.960,132.600 297.600 M104.975 296.100 L 103.800 297.400 105.100 296.225 C 106.312 295.130,106.584 294.800,106.275 294.800 C 106.206 294.800,105.621 295.385,104.975 296.100 M100.834 300.164 C 100.313 300.719,100.008 301.441,100.117 301.864 C 100.294 302.548,100.311 302.545,100.354 301.826 C 100.379 301.400,100.791 300.635,101.270 300.126 C 101.748 299.617,102.049 299.200,101.939 299.200 C 101.829 299.200,101.332 299.634,100.834 300.164 M324.800 314.200 C 323.828 315.190,323.123 316.000,323.233 316.000 C 323.343 316.000,324.228 315.190,325.200 314.200 C 326.172 313.210,326.877 312.400,326.767 312.400 C 326.657 312.400,325.772 313.210,324.800 314.200 M75.200 314.600 C 75.946 315.370,76.647 316.000,76.757 316.000 C 76.867 316.000,76.346 315.370,75.600 314.600 C 74.854 313.830,74.153 313.200,74.043 313.200 C 73.933 313.200,74.454 313.830,75.200 314.600 M85.000 324.400 C 85.859 325.280,86.652 326.000,86.762 326.000 C 86.872 326.000,86.259 325.280,85.400 324.400 C 84.541 323.520,83.748 322.800,83.638 322.800 C 83.528 322.800,84.141 323.520,85.000 324.400 M314.000 325.000 C 313.028 325.990,312.323 326.800,312.433 326.800 C 312.543 326.800,313.428 325.990,314.400 325.000 C 315.372 324.010,316.077 323.200,315.967 323.200 C 315.857 323.200,314.972 324.010,314.000 325.000 M181.300 368.276 C 181.685 368.376,182.315 368.376,182.700 368.276 C 183.085 368.175,182.770 368.093,182.000 368.093 C 181.230 368.093,180.915 368.175,181.300 368.276 M217.700 368.276 C 218.085 368.376,218.715 368.376,219.100 368.276 C 219.485 368.175,219.170 368.093,218.400 368.093 C 217.630 368.093,217.315 368.175,217.700 368.276 M184.505 368.687 C 185.114 368.779,186.014 368.777,186.505 368.682 C 186.997 368.587,186.500 368.511,185.400 368.514 C 184.300 368.517,183.897 368.595,184.505 368.687 M214.300 368.682 C 214.795 368.778,215.605 368.778,216.100 368.682 C 216.595 368.587,216.190 368.509,215.200 368.509 C 214.210 368.509,213.805 368.587,214.300 368.682 M189.505 369.083 C 190.002 369.179,190.722 369.175,191.105 369.075 C 191.487 368.975,191.080 368.896,190.200 368.901 C 189.320 368.905,189.007 368.987,189.505 369.083 M209.505 369.083 C 210.002 369.179,210.722 369.175,211.105 369.075 C 211.487 368.975,211.080 368.896,210.200 368.901 C 209.320 368.905,209.007 368.987,209.505 369.083 " stroke="none" fill="#f4926f" fill-rule="evenodd"></path><path id="path3" d="M196.520 30.298 C 198.455 30.372,201.515 30.371,203.320 30.297 C 205.124 30.223,203.540 30.163,199.800 30.164 C 196.060 30.164,194.584 30.225,196.520 30.298 M188.100 30.687 C 188.705 30.778,189.695 30.778,190.300 30.687 C 190.905 30.595,190.410 30.520,189.200 30.520 C 187.990 30.520,187.495 30.595,188.100 30.687 M209.305 30.687 C 209.914 30.779,210.814 30.777,211.305 30.682 C 211.797 30.587,211.300 30.511,210.200 30.514 C 209.100 30.517,208.697 30.595,209.305 30.687 M222.100 31.876 C 222.485 31.976,223.115 31.976,223.500 31.876 C 223.885 31.775,223.570 31.693,222.800 31.693 C 222.030 31.693,221.715 31.775,222.100 31.876 M311.200 71.725 C 311.200 71.794,311.785 72.379,312.500 73.025 L 313.800 74.200 312.625 72.900 C 311.530 71.688,311.200 71.416,311.200 71.725 M79.792 80.100 L 75.800 84.200 79.900 80.208 C 83.708 76.499,84.182 76.000,83.892 76.000 C 83.833 76.000,81.988 77.845,79.792 80.100 M319.993 80.100 C 323.887 84.094,324.400 84.582,324.400 84.293 C 324.400 84.234,322.465 82.299,320.100 79.993 L 315.800 75.800 319.993 80.100 M326.800 87.400 C 327.546 88.170,328.247 88.800,328.357 88.800 C 328.467 88.800,327.946 88.170,327.200 87.400 C 326.454 86.630,325.753 86.000,325.643 86.000 C 325.533 86.000,326.054 86.630,326.800 87.400 M274.100 98.291 C 274.925 98.378,276.275 98.378,277.100 98.291 C 277.925 98.205,277.250 98.134,275.600 98.134 C 273.950 98.134,273.275 98.205,274.100 98.291 M257.200 105.800 C 256.228 106.790,255.523 107.600,255.633 107.600 C 255.743 107.600,256.628 106.790,257.600 105.800 C 258.572 104.810,259.277 104.000,259.167 104.000 C 259.057 104.000,258.172 104.810,257.200 105.800 M288.585 106.100 L 286.600 108.200 288.700 106.215 C 290.651 104.371,290.983 104.000,290.685 104.000 C 290.622 104.000,289.677 104.945,288.585 106.100 M288.981 110.100 L 287.400 111.800 289.100 110.219 C 290.681 108.748,290.984 108.400,290.681 108.400 C 290.616 108.400,289.851 109.165,288.981 110.100 M283.781 110.500 L 282.200 112.200 283.900 110.619 C 285.481 109.148,285.784 108.800,285.481 108.800 C 285.416 108.800,284.651 109.565,283.781 110.500 M284.181 114.500 L 282.600 116.200 284.300 114.619 C 285.881 113.148,286.184 112.800,285.881 112.800 C 285.816 112.800,285.051 113.565,284.181 114.500 M278.400 115.400 C 277.428 116.390,276.723 117.200,276.833 117.200 C 276.943 117.200,277.828 116.390,278.800 115.400 C 279.772 114.410,280.477 113.600,280.367 113.600 C 280.257 113.600,279.372 114.410,278.400 115.400 M279.178 119.100 L 277.800 120.600 279.300 119.222 C 280.125 118.463,280.800 117.788,280.800 117.722 C 280.800 117.416,280.462 117.704,279.178 119.100 M272.975 120.500 L 271.800 121.800 273.100 120.625 C 273.815 119.979,274.400 119.394,274.400 119.325 C 274.400 119.016,274.070 119.288,272.975 120.500 M292.068 120.600 C 292.062 121.040,292.211 121.760,292.400 122.200 C 292.838 123.219,292.838 122.168,292.400 120.800 C 292.143 119.996,292.077 119.957,292.068 120.600 M301.334 124.000 C 301.334 125.650,301.405 126.325,301.491 125.500 C 301.578 124.675,301.578 123.325,301.491 122.500 C 301.405 121.675,301.334 122.350,301.334 124.000 M273.978 123.900 L 272.600 125.400 274.100 124.022 C 275.496 122.738,275.784 122.400,275.478 122.400 C 275.412 122.400,274.737 123.075,273.978 123.900 M267.775 125.300 L 266.600 126.600 267.900 125.425 C 268.615 124.779,269.200 124.194,269.200 124.125 C 269.200 123.816,268.870 124.088,267.775 125.300 M296.114 125.800 C 296.117 126.900,296.195 127.303,296.287 126.695 C 296.379 126.086,296.377 125.186,296.282 124.695 C 296.187 124.203,296.111 124.700,296.114 125.800 M274.600 132.000 C 275.906 133.320,277.065 134.400,277.175 134.400 C 277.285 134.400,276.306 133.320,275.000 132.000 C 273.694 130.680,272.535 129.600,272.425 129.600 C 272.315 129.600,273.294 130.680,274.600 132.000 M270.400 132.200 C 271.595 133.410,272.663 134.400,272.773 134.400 C 272.883 134.400,271.995 133.410,270.800 132.200 C 269.605 130.990,268.537 130.000,268.427 130.000 C 268.317 130.000,269.205 130.990,270.400 132.200 M281.583 139.300 C 282.564 140.345,283.419 141.200,283.483 141.200 C 283.784 141.200,283.466 140.841,281.700 139.183 L 279.800 137.400 281.583 139.300 M278.000 140.200 C 279.195 141.410,280.263 142.400,280.373 142.400 C 280.483 142.400,279.595 141.410,278.400 140.200 C 277.205 138.990,276.137 138.000,276.027 138.000 C 275.917 138.000,276.805 138.990,278.000 140.200 M240.105 140.287 C 240.714 140.379,241.614 140.377,242.105 140.282 C 242.597 140.187,242.100 140.111,241.000 140.114 C 239.900 140.117,239.497 140.195,240.105 140.287 M245.500 140.282 C 245.995 140.378,246.805 140.378,247.300 140.282 C 247.795 140.187,247.390 140.109,246.400 140.109 C 245.410 140.109,245.005 140.187,245.500 140.282 M243.597 150.700 L 235.000 159.400 243.700 150.803 C 251.784 142.816,252.580 142.000,252.297 142.000 C 252.240 142.000,248.325 145.915,243.597 150.700 M273.700 149.894 C 274.745 149.976,276.455 149.976,277.500 149.894 C 278.545 149.812,277.690 149.744,275.600 149.744 C 273.510 149.744,272.655 149.812,273.700 149.894 M256.893 153.600 C 256.893 154.370,256.975 154.685,257.076 154.300 C 257.176 153.915,257.176 153.285,257.076 152.900 C 256.975 152.515,256.893 152.830,256.893 153.600 M234.397 164.300 L 225.800 173.000 234.500 164.403 C 242.584 156.416,243.380 155.600,243.097 155.600 C 243.040 155.600,239.125 159.515,234.397 164.300 M233.178 161.100 L 231.800 162.600 233.300 161.222 C 234.696 159.938,234.984 159.600,234.678 159.600 C 234.612 159.600,233.937 160.275,233.178 161.100 M197.978 164.300 L 196.600 165.800 198.100 164.422 C 199.496 163.138,199.784 162.800,199.478 162.800 C 199.412 162.800,198.737 163.475,197.978 164.300 M242.595 174.900 L 236.200 181.400 242.700 175.005 C 248.739 169.063,249.381 168.400,249.095 168.400 C 249.038 168.400,246.113 171.325,242.595 174.900 M249.787 172.100 L 247.400 174.600 249.900 172.213 C 251.275 170.899,252.400 169.774,252.400 169.713 C 252.400 169.417,252.005 169.778,249.787 172.100 M205.398 189.300 L 192.200 202.600 205.500 189.402 C 217.861 177.137,218.980 176.000,218.698 176.000 C 218.641 176.000,212.656 181.985,205.398 189.300 M31.693 178.000 C 31.693 178.770,31.775 179.085,31.876 178.700 C 31.976 178.315,31.976 177.685,31.876 177.300 C 31.775 176.915,31.693 177.230,31.693 178.000 M183.978 178.300 L 182.600 179.800 184.100 178.422 C 184.925 177.663,185.600 176.988,185.600 176.922 C 185.600 176.616,185.262 176.904,183.978 178.300 M179.775 182.900 L 178.600 184.200 179.900 183.025 C 181.112 181.930,181.384 181.600,181.075 181.600 C 181.006 181.600,180.421 182.185,179.775 182.900 M209.196 189.900 L 201.000 198.200 209.300 190.004 C 213.865 185.496,217.600 181.761,217.600 181.704 C 217.600 181.419,216.812 182.188,209.196 189.900 M230.596 191.700 L 223.000 199.400 230.700 191.804 C 237.854 184.746,238.581 184.000,238.296 184.000 C 238.239 184.000,234.774 187.465,230.596 191.700 M174.575 188.900 L 173.400 190.200 174.700 189.025 C 175.415 188.379,176.000 187.794,176.000 187.725 C 176.000 187.416,175.670 187.688,174.575 188.900 M369.328 190.800 C 369.328 192.230,369.401 192.815,369.489 192.100 C 369.578 191.385,369.578 190.215,369.489 189.500 C 369.401 188.785,369.328 189.370,369.328 190.800 M30.531 192.200 C 30.533 193.740,30.605 194.321,30.692 193.491 C 30.779 192.661,30.777 191.401,30.689 190.691 C 30.600 189.981,30.529 190.660,30.531 192.200 M220.796 197.100 L 213.800 204.200 220.900 197.204 C 224.805 193.357,228.000 190.162,228.000 190.104 C 228.000 189.819,227.295 190.504,220.796 197.100 M369.734 199.600 C 369.734 201.250,369.805 201.925,369.891 201.100 C 369.978 200.275,369.978 198.925,369.891 198.100 C 369.805 197.275,369.734 197.950,369.734 199.600 M30.124 200.200 C 30.126 201.520,30.201 202.012,30.290 201.293 C 30.379 200.574,30.377 199.494,30.286 198.893 C 30.195 198.292,30.122 198.880,30.124 200.200 M199.375 199.700 L 198.200 201.000 199.500 199.825 C 200.712 198.730,200.984 198.400,200.675 198.400 C 200.606 198.400,200.021 198.985,199.375 199.700 M180.685 205.992 C 182.931 208.287,184.822 210.082,184.886 209.982 C 184.950 209.882,183.112 208.004,180.801 205.809 L 176.600 201.819 180.685 205.992 M175.000 204.800 C 176.083 205.900,177.060 206.800,177.170 206.800 C 177.280 206.800,176.483 205.900,175.400 204.800 C 174.317 203.700,173.340 202.800,173.230 202.800 C 173.120 202.800,173.917 203.700,175.000 204.800 M212.175 205.700 L 211.000 207.000 212.300 205.825 C 213.015 205.179,213.600 204.594,213.600 204.525 C 213.600 204.216,213.270 204.488,212.175 205.700 M30.531 207.800 C 30.533 209.340,30.605 209.921,30.692 209.091 C 30.779 208.261,30.777 207.001,30.689 206.291 C 30.600 205.581,30.529 206.260,30.531 207.800 M229.775 207.700 L 228.600 209.000 229.900 207.825 C 230.615 207.179,231.200 206.594,231.200 206.525 C 231.200 206.216,230.870 206.488,229.775 207.700 M369.328 208.800 C 369.328 210.230,369.401 210.815,369.489 210.100 C 369.578 209.385,369.578 208.215,369.489 207.500 C 369.401 206.785,369.328 207.370,369.328 208.800 M179.310 209.024 C 180.360 210.137,181.095 211.172,180.943 211.324 C 180.791 211.476,180.877 211.600,181.133 211.600 C 181.998 211.600,181.610 210.980,179.500 208.985 L 177.400 207.000 179.310 209.024 M222.594 215.300 L 217.400 220.600 222.700 215.406 C 227.623 210.581,228.181 210.000,227.894 210.000 C 227.836 210.000,225.451 212.385,222.594 215.300 M187.783 211.619 C 187.050 212.428,187.095 212.490,191.819 217.119 L 196.596 221.800 192.021 217.117 C 187.504 212.492,187.455 212.423,188.185 211.617 C 188.591 211.167,188.834 210.800,188.724 210.800 C 188.614 210.800,188.191 211.168,187.783 211.619 M204.402 218.198 L 198.614 223.996 201.998 227.398 C 203.859 229.269,205.496 230.800,205.636 230.800 C 205.775 230.800,204.339 229.275,202.444 227.411 L 199.000 224.022 204.795 218.211 C 207.982 215.015,210.500 212.400,210.390 212.400 C 210.280 212.400,207.585 215.009,204.402 218.198 M199.600 218.600 C 197.961 220.250,196.710 221.600,196.820 221.600 C 196.930 221.600,198.361 220.250,200.000 218.600 C 201.639 216.950,202.890 215.600,202.780 215.600 C 202.670 215.600,201.239 216.950,199.600 218.600 M192.229 221.638 C 192.873 222.429,193.481 223.008,193.579 222.925 C 193.678 222.842,193.151 222.195,192.409 221.487 L 191.058 220.200 192.229 221.638 M31.693 222.000 C 31.693 222.770,31.775 223.085,31.876 222.700 C 31.976 222.315,31.976 221.685,31.876 221.300 C 31.775 220.915,31.693 221.230,31.693 222.000 M176.675 223.122 C 175.591 224.253,175.293 225.363,175.963 225.777 C 176.162 225.900,176.228 225.630,176.110 225.177 C 175.964 224.620,176.260 223.973,177.022 223.177 C 177.642 222.530,178.060 222.000,177.950 222.000 C 177.840 222.000,177.266 222.505,176.675 223.122 M213.775 223.700 L 212.600 225.000 213.900 223.825 C 214.615 223.179,215.200 222.594,215.200 222.525 C 215.200 222.216,214.870 222.488,213.775 223.700 M199.000 228.800 C 200.528 230.340,201.869 231.600,201.979 231.600 C 202.089 231.600,200.928 230.340,199.400 228.800 C 197.872 227.260,196.531 226.000,196.421 226.000 C 196.311 226.000,197.472 227.260,199.000 228.800 M166.985 232.900 L 165.000 235.000 167.100 233.015 C 168.255 231.923,169.200 230.978,169.200 230.915 C 169.200 230.617,168.829 230.949,166.985 232.900 M198.975 234.500 L 197.800 235.800 199.100 234.625 C 200.312 233.530,200.584 233.200,200.275 233.200 C 200.206 233.200,199.621 233.785,198.975 234.500 M156.992 243.300 L 153.000 247.400 157.100 243.408 C 159.355 241.212,161.200 239.367,161.200 239.308 C 161.200 239.018,160.701 239.492,156.992 243.300 M186.575 245.300 L 185.400 246.600 186.700 245.425 C 187.415 244.779,188.000 244.194,188.000 244.125 C 188.000 243.816,187.670 244.088,186.575 245.300 M145.193 255.500 L 141.000 259.800 145.300 255.607 C 149.294 251.713,149.782 251.200,149.493 251.200 C 149.434 251.200,147.499 253.135,145.193 255.500 M132.192 268.900 L 128.600 272.600 132.300 269.008 C 135.736 265.672,136.182 265.200,135.892 265.200 C 135.832 265.200,134.167 266.865,132.192 268.900 M120.400 281.000 C 119.428 281.990,118.723 282.800,118.833 282.800 C 118.943 282.800,119.828 281.990,120.800 281.000 C 121.772 280.010,122.477 279.200,122.367 279.200 C 122.257 279.200,121.372 280.010,120.400 281.000 M136.080 281.280 C 135.816 281.544,135.627 282.309,135.660 282.980 L 135.720 284.200 135.895 283.000 C 135.992 282.340,136.257 281.575,136.484 281.300 C 137.012 280.662,136.713 280.647,136.080 281.280 M108.000 293.400 C 103.714 297.690,100.298 301.200,100.408 301.200 C 100.518 301.200,104.114 297.690,108.400 293.400 C 112.686 289.110,116.102 285.600,115.992 285.600 C 115.882 285.600,112.286 289.110,108.000 293.400 M119.000 288.400 C 120.528 289.940,121.869 291.200,121.979 291.200 C 122.089 291.200,120.928 289.940,119.400 288.400 C 117.872 286.860,116.531 285.600,116.421 285.600 C 116.311 285.600,117.472 286.860,119.000 288.400 M132.000 296.510 C 132.000 296.571,133.395 297.966,135.100 299.610 L 138.200 302.600 135.210 299.500 C 132.433 296.621,132.000 296.217,132.000 296.510 M336.800 300.000 C 336.330 300.660,336.036 301.200,336.146 301.200 C 336.256 301.200,336.730 300.660,337.200 300.000 C 337.670 299.340,337.964 298.800,337.854 298.800 C 337.744 298.800,337.270 299.340,336.800 300.000 M104.700 303.098 C 106.735 303.171,110.065 303.171,112.100 303.098 C 114.135 303.025,112.470 302.966,108.400 302.966 C 104.330 302.966,102.665 303.025,104.700 303.098 M328.175 310.900 L 327.000 312.200 328.300 311.025 C 329.015 310.379,329.600 309.794,329.600 309.725 C 329.600 309.416,329.270 309.688,328.175 310.900 M324.975 314.500 L 323.800 315.800 325.100 314.625 C 325.815 313.979,326.400 313.394,326.400 313.325 C 326.400 313.016,326.070 313.288,324.975 314.500 M75.583 315.300 C 76.564 316.345,77.419 317.200,77.483 317.200 C 77.784 317.200,77.466 316.841,75.700 315.183 L 73.800 313.400 75.583 315.300 M84.600 324.400 C 85.683 325.500,86.660 326.400,86.770 326.400 C 86.880 326.400,86.083 325.500,85.000 324.400 C 83.917 323.300,82.940 322.400,82.830 322.400 C 82.720 322.400,83.517 323.300,84.600 324.400 M314.800 324.600 C 313.828 325.590,313.123 326.400,313.233 326.400 C 313.343 326.400,314.228 325.590,315.200 324.600 C 316.172 323.610,316.877 322.800,316.767 322.800 C 316.657 322.800,315.772 323.610,314.800 324.600 M178.100 368.276 C 178.485 368.376,179.115 368.376,179.500 368.276 C 179.885 368.175,179.570 368.093,178.800 368.093 C 178.030 368.093,177.715 368.175,178.100 368.276 M220.900 368.276 C 221.285 368.376,221.915 368.376,222.300 368.276 C 222.685 368.175,222.370 368.093,221.600 368.093 C 220.830 368.093,220.515 368.175,220.900 368.276 M186.500 369.076 C 186.885 369.176,187.515 369.176,187.900 369.076 C 188.285 368.975,187.970 368.893,187.200 368.893 C 186.430 368.893,186.115 368.975,186.500 369.076 M195.523 369.499 C 198.231 369.568,202.551 369.568,205.123 369.499 C 207.695 369.429,205.480 369.372,200.200 369.373 C 194.920 369.373,192.815 369.430,195.523 369.499 " stroke="none" fill="#fcac94" fill-rule="evenodd"></path><path id="path4" d="M250.386 147.900 L 248.200 150.200 250.500 148.014 C 251.765 146.811,252.800 145.776,252.800 145.714 C 252.800 145.417,252.418 145.763,250.386 147.900 M226.391 168.300 L 223.000 171.800 226.500 168.409 C 228.425 166.544,230.000 164.969,230.000 164.909 C 230.000 164.618,229.541 165.049,226.391 168.300 M30.493 196.000 C 30.493 196.770,30.575 197.085,30.676 196.700 C 30.776 196.315,30.776 195.685,30.676 195.300 C 30.575 194.915,30.493 195.230,30.493 196.000 M170.400 196.125 C 170.400 196.194,170.985 196.779,171.700 197.425 L 173.000 198.600 171.825 197.300 C 170.730 196.088,170.400 195.816,170.400 196.125 M170.400 200.200 C 171.817 201.630,173.067 202.800,173.177 202.800 C 173.287 202.800,172.217 201.630,170.800 200.200 C 169.383 198.770,168.133 197.600,168.023 197.600 C 167.913 197.600,168.983 198.770,170.400 200.200 M195.578 203.500 L 194.200 205.000 195.700 203.622 C 196.525 202.863,197.200 202.188,197.200 202.122 C 197.200 201.816,196.862 202.104,195.578 203.500 M218.575 203.700 L 217.400 205.000 218.700 203.825 C 219.415 203.179,220.000 202.594,220.000 202.525 C 220.000 202.216,219.670 202.488,218.575 203.700 M30.493 204.000 C 30.493 204.770,30.575 205.085,30.676 204.700 C 30.776 204.315,30.776 203.685,30.676 203.300 C 30.575 202.915,30.493 203.230,30.493 204.000 M189.183 218.500 C 190.841 220.266,191.200 220.584,191.200 220.283 C 191.200 220.219,190.345 219.364,189.300 218.383 L 187.400 216.600 189.183 218.500 M119.900 303.099 C 122.375 303.169,126.425 303.169,128.900 303.099 C 131.375 303.028,129.350 302.971,124.400 302.971 C 119.450 302.971,117.425 303.028,119.900 303.099 M78.800 318.525 C 78.800 318.594,79.385 319.179,80.100 319.825 L 81.400 321.000 80.225 319.700 C 79.130 318.488,78.800 318.216,78.800 318.525 " stroke="none" fill="#fcac8c" fill-rule="evenodd"></path></g></svg>